<svg width="27" height="28" viewBox="0 0 27 28" fill="none" xmlns="http://www.w3.org/2000/svg">
<path d="M13.4998 7.33329C13.1462 7.33329 12.8071 7.47377 12.557 7.72382C12.307 7.97387 12.1665 8.313 12.1665 8.66663V14C12.1665 14.3536 12.307 14.6927 12.557 14.9428C12.8071 15.1928 13.1462 15.3333 13.4998 15.3333C13.8535 15.3333 14.1926 15.1928 14.4427 14.9428C14.6927 14.6927 14.8332 14.3536 14.8332 14V8.66663C14.8332 8.313 14.6927 7.97387 14.4427 7.72382C14.1926 7.47377 13.8535 7.33329 13.4998 7.33329ZM14.7265 18.8266C14.6973 18.7417 14.657 18.661 14.6065 18.5866L14.4465 18.3866C14.259 18.2016 14.0209 18.0763 13.7623 18.0265C13.5036 17.9766 13.236 18.0045 12.9932 18.1066C12.8316 18.1741 12.6828 18.2689 12.5532 18.3866C12.4296 18.5112 12.3318 18.659 12.2655 18.8214C12.1991 18.9839 12.1655 19.1578 12.1665 19.3333C12.1686 19.5075 12.2049 19.6797 12.2732 19.84C12.3331 20.0054 12.4286 20.1557 12.553 20.2801C12.6775 20.4045 12.8277 20.5001 12.9932 20.56C13.1528 20.6305 13.3253 20.6669 13.4998 20.6669C13.6743 20.6669 13.8469 20.6305 14.0065 20.56C14.172 20.5001 14.3222 20.4045 14.4467 20.2801C14.5711 20.1557 14.6666 20.0054 14.7265 19.84C14.7948 19.6797 14.8311 19.5075 14.8332 19.3333C14.8397 19.2445 14.8397 19.1554 14.8332 19.0666C14.8102 18.9816 14.7742 18.9006 14.7265 18.8266ZM13.4998 0.666626C10.8628 0.666626 8.2849 1.44861 6.09224 2.9137C3.89958 4.37878 2.19062 6.46116 1.18145 8.89751C0.172281 11.3339 -0.0917634 14.0147 0.422706 16.6012C0.937176 19.1876 2.20705 21.5633 4.07175 23.428C5.93645 25.2927 8.31223 26.5626 10.8986 27.0771C13.4851 27.5916 16.1659 27.3275 18.6023 26.3184C21.0386 25.3092 23.121 23.6002 24.5861 21.4076C26.0512 19.2149 26.8332 16.637 26.8332 14C26.8332 12.249 26.4883 10.5152 25.8182 8.89751C25.1482 7.27984 24.166 5.80998 22.9279 4.57187C21.6898 3.33375 20.22 2.35163 18.6023 1.68157C16.9846 1.0115 15.2508 0.666626 13.4998 0.666626ZM13.4998 24.6666C11.3902 24.6666 9.32788 24.041 7.57376 22.869C5.81964 21.6969 4.45246 20.031 3.64513 18.0819C2.83779 16.1328 2.62656 13.9881 3.03813 11.919C3.44971 9.84986 4.46561 7.94925 5.95737 6.45749C7.44913 4.96573 9.34975 3.94983 11.4189 3.53825C13.488 3.12667 15.6327 3.33791 17.5818 4.14524C19.5309 4.95258 21.1968 6.31975 22.3689 8.07388C23.5409 9.828 24.1665 11.8903 24.1665 14C24.1665 16.8289 23.0427 19.542 21.0423 21.5424C19.0419 23.5428 16.3288 24.6666 13.4998 24.6666Z" fill="#F95A5A"/>
</svg>
