<svg width="24" height="24" viewBox="0 0 24 24" fill="none" xmlns="http://www.w3.org/2000/svg">
<path d="M20.4669 6.51207C20.1292 6.18409 19.6723 6 19.1962 6C18.72 6 18.2632 6.18409 17.9255 6.51207L11.4549 12.7459L5.0745 6.51207C4.7368 6.18409 4.27999 6 3.80382 6C3.32766 6 2.87084 6.18409 2.53314 6.51207C2.36421 6.67578 2.23012 6.87054 2.13862 7.08513C2.04711 7.29972 2 7.52989 2 7.76236C2 7.99482 2.04711 8.22499 2.13862 8.43958C2.23012 8.65417 2.36421 8.84893 2.53314 9.01264L10.1752 16.4791C10.3428 16.6442 10.5421 16.7752 10.7618 16.8646C10.9814 16.954 11.217 17 11.4549 17C11.6929 17 11.9285 16.954 12.1481 16.8646C12.3677 16.7752 12.5671 16.6442 12.7346 16.4791L20.4669 9.01264C20.6358 8.84893 20.7699 8.65417 20.8614 8.43958C20.9529 8.22499 21 7.99482 21 7.76236C21 7.52989 20.9529 7.29972 20.8614 7.08513C20.7699 6.87054 20.6358 6.67578 20.4669 6.51207Z" fill="#333333"/>
</svg>
