<svg width="24" height="24" viewBox="0 0 24 24" fill="none" xmlns="http://www.w3.org/2000/svg">
<path d="M16.9091 12.0806C17.2311 11.7591 17.2316 11.2375 16.9102 10.9154C16.5888 10.5933 16.0671 10.5928 15.745 10.9143L11.1616 15.4888L8.98976 13.3169C8.668 12.9952 8.14633 12.9952 7.82458 13.3169C7.50282 13.6387 7.50282 14.1604 7.82458 14.4821L10.5784 17.236C10.9 17.5575 11.4212 17.5578 11.7431 17.2366L16.9091 12.0806Z" fill="#00B288"/>
<path fill-rule="evenodd" clip-rule="evenodd" d="M16.3271 2C16.7821 2 17.151 2.36888 17.151 2.82391V3.26616H19.4023C20.69 3.26616 21.7338 4.31001 21.7338 5.59766V19.6685C21.7338 20.9562 20.69 22 19.4023 22H5.3315C4.04385 22 3 20.9562 3 19.6685V5.59766C3 4.31001 4.04385 3.26616 5.3315 3.26616H7.58326V2.82391C7.58326 2.36888 7.95214 2 8.40717 2C8.8622 2 9.23108 2.36888 9.23108 2.82391V3.26616H15.5031V2.82391C15.5031 2.36888 15.872 2 16.3271 2ZM7.58326 4.91397V5.33656C7.58326 5.79159 7.95214 6.16046 8.40717 6.16046C8.8622 6.16046 9.23108 5.79159 9.23108 5.33656V4.91397H15.5031V5.33656C15.5031 5.79159 15.872 6.16046 16.3271 6.16046C16.7821 6.16046 17.151 5.79159 17.151 5.33656V4.91397H19.4023C19.7799 4.91397 20.086 5.22007 20.086 5.59766V7.71884H4.64781V5.59766C4.64781 5.22007 4.95391 4.91397 5.3315 4.91397H7.58326ZM4.64781 19.6685V9.36665H20.086V19.6685C20.086 20.0461 19.7799 20.3522 19.4023 20.3522H5.3315C4.95391 20.3522 4.64781 20.0461 4.64781 19.6685Z" fill="#00B288"/>
</svg>
