<svg
  width="24"
  height="24"
  viewBox="0 0 24 24"
  fill="none"
  xmlns="http://www.w3.org/2000/svg"
>
  <path
    d="M2.53314 16.4879C2.87084 16.8159 3.32766 17 3.80382 17C4.27999 17 4.7368 16.8159 5.0745 16.4879L11.5451 10.2541L17.9255 16.4879C18.2632 16.8159 18.72 17 19.1962 17C19.6723 17 20.1292 16.8159 20.4669 16.4879C20.6358 16.3242 20.7699 16.1295 20.8614 15.9149C20.9529 15.7003 21 15.4701 21 15.2376C21 15.0052 20.9529 14.775 20.8614 14.5604C20.7699 14.3458 20.6358 14.1511 20.4669 13.9874L12.8248 6.52089C12.6572 6.35584 12.4579 6.22483 12.2382 6.13543C12.0186 6.04603 11.783 6 11.5451 6C11.3071 6 11.0715 6.04603 10.8519 6.13543C10.6323 6.22483 10.4329 6.35584 10.2654 6.52089L2.53314 13.9874C2.36421 14.1511 2.23012 14.3458 2.13862 14.5604C2.04711 14.775 2 15.0052 2 15.2376C2 15.4701 2.04711 15.7003 2.13862 15.9149C2.23012 16.1295 2.36421 16.3242 2.53314 16.4879Z"
    fill="currentColor"
  />
</svg>
