<svg width="88" height="88" viewBox="0 0 88 88" fill="none" xmlns="http://www.w3.org/2000/svg">
<path d="M58.1213 71.0594C51.1988 78.2402 51.4782 78.4967 41.456 80.5484C31.4337 82.6001 4.13129 77.9838 7.96725 60.0316C6.05429 57.809 2.68987 51.9788 4.53587 46.4392C6.38188 40.8997 10.7057 42.5924 12.6369 44.1311C13.8741 34.0231 17.6148 29.8477 19.6629 29L51.1988 43.3617L57.0957 53.3637C63.2491 48.4396 67.0095 52.5088 68.1205 55.1589C71.8125 64.8018 62.9927 69.7771 58.1213 71.0594Z" fill="#F7E7D0"/>
<path fill-rule="evenodd" clip-rule="evenodd" d="M19.6771 28.1824L51.7248 42.7772L57.3139 52.257C60.2439 50.1566 62.7653 49.9265 64.7755 50.7238C66.8724 51.5555 68.2085 53.429 68.8121 54.8689L68.8167 54.8797L68.8209 54.8907C69.7891 57.4194 69.9514 59.6847 69.535 61.684C69.1192 63.6798 68.137 65.3624 66.8892 66.7465C64.476 69.4234 61.0299 71.0317 58.5174 71.7292C58.1462 72.1146 57.7949 72.4811 57.4606 72.8298C54.8046 75.6001 53.2254 77.2473 51.3344 78.3719C49.1559 79.6676 46.5838 80.2642 41.6064 81.2831C36.4355 82.3417 26.9524 81.6779 19.2282 78.4845C15.3572 76.8841 11.857 74.6199 9.5705 71.5472C7.32336 68.5274 6.28389 64.7712 7.16053 60.235C6.17959 59.0215 4.94942 57.0574 4.13403 54.727C3.25063 52.2022 2.83182 49.1805 3.82434 46.2021C4.31624 44.726 4.99586 43.6634 5.82057 42.956C6.65312 42.2418 7.58988 41.9277 8.51735 41.8817C9.80838 41.8178 11.0645 42.2709 12.0553 42.8363C12.7242 38.3305 13.9008 35.0408 15.1908 32.7276C16.5816 30.2336 18.1374 28.8197 19.376 28.307L19.6771 28.1824ZM11.8414 44.4732C10.9573 43.8567 9.7393 43.323 8.59157 43.3799C7.96592 43.4109 7.35488 43.6161 6.79717 44.0945C6.23162 44.5796 5.6785 45.3827 5.2474 46.6764C4.39392 49.2375 4.73431 51.9007 5.54986 54.2316C6.11626 55.8503 6.90109 57.2765 7.62934 58.3474C8.47654 55.5598 9.92803 53.0301 11.4781 51.0503C11.4868 48.6342 11.6172 46.4476 11.8414 44.4732ZM16.5008 33.4582C15.2114 35.7704 13.9907 39.244 13.3814 44.2222C13.1254 46.3132 12.9776 48.6682 12.9776 51.312V51.5756L12.8127 51.7812C11.0337 53.9994 9.38707 56.9761 8.70069 60.1883C7.78655 64.4665 8.72667 67.9006 10.7739 70.6517C12.8409 73.4295 16.0735 75.5571 19.8013 77.0983C27.275 80.1882 36.4542 80.8067 41.3055 79.8136C46.3503 78.7809 48.6496 78.2234 50.5676 77.0827C52.2716 76.0693 53.6906 74.5908 56.3958 71.7721C56.7656 71.3868 57.1594 70.9765 57.5813 70.5388L57.7272 70.3876L57.9304 70.3341C60.2745 69.717 63.5499 68.2105 65.7751 65.7422C66.8797 64.5168 67.7146 63.0674 68.0665 61.3782C68.417 59.6952 68.2983 57.7262 67.4243 55.4382C66.915 54.23 65.8171 52.7506 64.2225 52.1181C62.6918 51.511 60.4938 51.605 57.5643 53.9492L56.889 54.4897L50.6728 43.9463L19.6713 29.8279C18.8531 30.2781 17.6619 31.3762 16.5008 33.4582Z" fill="#666666"/>
<path d="M50.2544 42.9195C45.1193 44.2783 39.0982 41.8767 36.0821 40.0264C25.6339 40.1847 21.4216 33.8485 20.1147 28.4625C15.9367 30.4832 13.6042 39.0654 12.745 44.2919C12.6593 45.0893 12.5001 46 12.5001 46C12.5612 45.4894 12.6427 44.9145 12.745 44.2919C12.8499 43.3168 12.8448 42.5111 12.3043 43.7475C10.0267 41.9487 7.50006 42 7.50006 42C2.64102 27.6094 13.8115 19.297 19.6322 16.8986C24.8961 7.64743 37.0101 6.53387 42.409 7.13348C69.5387 11.0395 74.2965 32.6183 73.2842 42.9195C80.1679 41.9446 82.5637 46.238 82.9011 48.5066C83.9134 59.4023 76.9116 61.6123 73.2842 61.3554C74.9039 73.8958 65.5346 72.7858 59.8825 70.73C59.8825 70.73 66.0255 67.976 67.9809 63.5346C70.4353 57.96 67.007 51.1998 62.6663 51.1998C58.3641 51.1998 57.0987 53.7696 57.0987 53.7696L50.2544 42.9195Z" fill="#C6CACD"/>
<path fill-rule="evenodd" clip-rule="evenodd" d="M30.7467 7.60599C35.219 6.21157 39.7027 6.0783 42.4918 6.38806L42.5039 6.3894L42.5159 6.39113C56.2923 8.37461 64.4619 14.8673 69.037 22.2326C73.3355 29.1527 74.4308 36.7922 74.1039 42.0735C77.2357 41.8198 79.4848 42.6516 81.0239 43.9175C82.6866 45.2851 83.4504 47.102 83.6429 48.3962L83.646 48.4166L83.6479 48.4372C84.1701 54.0577 82.6301 57.5903 80.3362 59.669C78.3963 61.4267 76.0065 62.0623 74.1246 62.1201C74.3885 64.9128 74.0939 67.0743 73.3512 68.7098C72.5224 70.5351 71.1638 71.6414 69.5661 72.2212C67.9929 72.7923 66.2131 72.8457 64.4996 72.6407C62.7799 72.4348 61.0772 71.9626 59.6262 71.4348L57.8876 70.8024L59.5754 70.0458L59.5776 70.0448L59.5881 70.04L59.6344 70.0185C59.6761 69.999 59.7392 69.9691 59.8209 69.9292C59.9846 69.8492 60.2231 69.7289 60.5165 69.5704C61.1041 69.253 61.9076 68.7848 62.7689 68.183C64.5133 66.9644 66.4006 65.2628 67.2945 63.2324C68.4251 60.6644 68.2047 57.8054 67.1899 55.589C66.1612 53.3423 64.4258 51.9498 62.6663 51.9498C60.6767 51.9498 59.4433 52.5401 58.72 53.0841C58.3536 53.3597 58.1078 53.6313 57.9575 53.8262C57.8823 53.9236 57.8312 54.0015 57.8012 54.0507C57.7862 54.0752 57.7764 54.0925 57.7716 54.1013C57.7704 54.1034 57.7695 54.1051 57.7689 54.1062C57.7683 54.1073 57.768 54.1079 57.768 54.1079L57.1794 55.3033L49.9066 43.7739C47.3276 44.3295 44.6101 44.0381 42.1834 43.4018C39.6835 42.7464 37.4372 41.7107 35.8766 40.7787C30.6009 40.8148 26.8152 39.2285 24.1728 36.8846C21.817 34.795 20.4167 32.1452 19.6542 29.6248C19.0547 30.0785 18.4804 30.7058 17.9358 31.4835C17.1604 32.5908 16.4755 33.9595 15.8823 35.452C14.6988 38.4298 13.9134 41.8158 13.4885 44.3932C13.444 44.802 13.3821 45.2326 13.3316 45.5594C13.3058 45.7264 13.2828 45.8681 13.2661 45.9682C13.2578 46.0184 13.2511 46.0582 13.2464 46.0856L13.2409 46.1174L13.239 46.1282L12.5001 46L13.2389 46.1292L11.7554 45.9108C11.8092 45.4616 11.8781 44.9655 11.9625 44.4332L11.8395 44.3361C10.8093 43.5225 9.71824 43.1241 8.87902 42.9299C8.4605 42.8331 8.10916 42.7881 7.86655 42.7674C7.74544 42.757 7.65202 42.7527 7.59157 42.751C7.56137 42.7501 7.53946 42.7499 7.52651 42.7499L7.5148 42.7498L6.96544 42.761L6.78949 42.2399C4.2778 34.8013 5.90825 28.8791 8.94605 24.5232C11.8815 20.314 16.1106 17.5894 19.1093 16.3048C21.8754 11.6033 26.3382 8.98052 30.7467 7.60599ZM8.05333 41.2781C8.35059 41.3058 8.75091 41.3606 9.21716 41.4685C10.0259 41.6556 11.0451 42.0054 12.0691 42.6605C12.1172 42.6085 12.1909 42.5385 12.2919 42.4802C12.2995 42.4758 12.3074 42.4713 12.3158 42.4669C12.7855 40.1189 13.5003 37.3841 14.4884 34.898C15.1079 33.3391 15.8433 31.8567 16.7071 30.6231C17.4383 29.579 18.2837 28.6814 19.2589 28.0785C18.9513 26.6135 18.8463 25.231 18.8826 24.0704L20.3818 24.1173C20.3452 25.2894 20.4694 26.7441 20.8435 28.2856C21.4711 30.8719 22.7886 33.6517 25.1681 35.7625C27.2015 37.5662 30.0549 38.9212 34.0273 39.2183C32.3251 37.5379 31.3881 35.9386 31.0821 35.1617L32.4777 34.612C32.7605 35.3299 33.9967 37.4358 36.5104 39.4092C37.9614 40.2942 40.1371 41.3146 42.5638 41.9509C45.0155 42.5937 47.664 42.8291 50.0625 42.1944C51.6901 41.7637 53.2112 40.9308 54.4979 39.5327C54.7392 39.2361 55.2384 38.162 54.8264 36.4688C54.0998 37.2684 53.0942 38.0217 51.8414 38.3828C49.8922 38.9447 47.5246 38.5079 44.9478 36.2185L45.9441 35.0971C48.2263 37.1248 50.0766 37.3305 51.4259 36.9415C52.8354 36.5352 53.8876 35.4269 54.4125 34.5133L55.1407 33.2457L55.7456 34.5765C57.0618 37.4724 56.3559 39.6572 55.6359 40.5101L55.626 40.5219L55.6156 40.5332C54.3735 41.8879 52.9365 42.7903 51.4088 43.3439L57.1605 52.4618C57.3407 52.2774 57.5585 52.0808 57.8183 51.8853C58.8033 51.1444 60.3537 50.4498 62.6663 50.4498C65.2475 50.4498 67.3966 52.4374 68.5537 54.9645C69.7246 57.5219 69.9911 60.8303 68.6674 63.8369C67.6059 66.2479 65.444 68.144 63.628 69.4127C62.9693 69.8728 62.3437 70.2589 61.8119 70.5651C62.737 70.8257 63.7097 71.0354 64.6779 71.1513C66.2602 71.3407 67.7813 71.2733 69.0544 70.8112C70.3032 70.358 71.3364 69.519 71.9854 68.0896C72.646 66.6348 72.9351 64.5077 72.5404 61.4514L72.423 60.5425L73.3372 60.6072C74.9976 60.7248 77.4371 60.2718 79.3289 58.5575C81.1871 56.8737 82.6405 53.8593 82.1563 48.5973C82.0062 47.623 81.4026 46.1712 80.0711 45.076C78.8419 44.065 76.9294 43.3063 74.0242 43.5863C73.9996 44.4513 73.9265 45.5436 73.7728 46.5677C73.6746 47.2219 73.5402 47.8718 73.3548 48.4252C73.3176 48.5363 73.2765 48.6493 73.2307 48.7618C73.8945 48.8703 74.6526 48.9436 75.3595 48.9198C75.9177 48.901 76.4018 48.8226 76.7701 48.681C77.1345 48.5409 77.3271 48.3635 77.4198 48.1752L78.7655 48.8379C78.4533 49.472 77.8951 49.8556 77.3084 50.0811C76.7255 50.3052 76.0582 50.3971 75.41 50.419C74.1124 50.4627 72.723 50.23 71.8343 50.0044L70.3868 49.637L71.546 48.6954C71.6247 48.6314 71.7753 48.418 71.9325 47.9488C72.0792 47.5106 72.1978 46.9554 72.2895 46.345C72.4723 45.1268 72.5342 43.7816 72.5342 42.9195V42.8827L72.5378 42.8461C73.0306 37.8315 72.116 30.0323 67.7628 23.024C63.4309 16.0502 55.6601 9.80215 42.3143 7.87757C39.7033 7.58942 35.4371 7.71478 31.1932 9.03799C26.9482 10.3615 22.793 12.8601 20.2841 17.2695L20.1565 17.4937L19.9179 17.592C17.1067 18.7504 12.9884 21.3491 10.1764 25.3812C7.45332 29.2859 5.93485 34.5566 8.05333 41.2781Z" fill="#666666"/>
<path fill-rule="evenodd" clip-rule="evenodd" d="M17.1407 47.2599C17.5495 47.327 17.8265 47.7127 17.7594 48.1214C17.7153 48.3899 17.8335 48.6852 18.1887 49.014C18.3974 49.2073 18.6482 49.3715 18.8838 49.4971C19.5146 48.8849 20.3578 48.4016 21.3765 48.5166C22.6068 48.6554 23.7583 49.6335 24.8393 51.4569C25.0505 51.8132 24.933 52.2733 24.5766 52.4845C24.2203 52.6958 23.7603 52.5782 23.549 52.2219C22.5418 50.5229 21.7227 50.0651 21.2084 50.0071C20.7118 49.9511 20.1779 50.2367 19.6477 50.8791C19.2645 51.3436 18.9511 51.9192 18.7402 52.4441C18.5857 52.8284 18.1489 53.0148 17.7646 52.8603C17.3802 52.7059 17.1939 52.2691 17.3484 51.8847C17.5016 51.5035 17.7023 51.0913 17.9476 50.6906C17.6832 50.5327 17.4134 50.3404 17.1696 50.1147C16.6407 49.625 16.1182 48.8594 16.2792 47.8786C16.3462 47.4698 16.732 47.1928 17.1407 47.2599ZM40.2572 50.8345C40.038 51.2562 39.8828 51.778 39.7959 52.2899C39.7265 52.6983 39.3393 52.9732 38.9309 52.9038C38.5226 52.8345 38.2477 52.4473 38.317 52.0389C38.4222 51.419 38.6165 50.7387 38.9262 50.1428C39.2309 49.5565 39.6906 48.971 40.3675 48.6781C41.0833 48.3683 41.8858 48.451 42.7072 48.9058C43.4246 49.303 44.1875 49.9969 45.0112 51.0261C45.2459 50.9669 45.5045 50.869 45.7249 50.725C46.0517 50.5114 46.2501 50.235 46.2501 49.8219C46.2501 49.4077 46.5859 49.0719 47.0001 49.0719C47.4143 49.0719 47.7501 49.4077 47.7501 49.8219C47.7501 50.8664 47.1797 51.5661 46.5456 51.9806C46.3506 52.108 46.146 52.2118 45.9423 52.2953C46.1604 52.6165 46.3839 52.9614 46.6128 53.3314C46.8308 53.6836 46.722 54.1459 46.3698 54.3638C46.0175 54.5818 45.5553 54.473 45.3373 54.1207C44.8953 53.4064 44.4818 52.8013 44.0961 52.2924C43.2227 51.1398 42.5179 50.5156 41.9806 50.218C41.4665 49.9334 41.1574 49.9707 40.9632 50.0547C40.7301 50.1556 40.4813 50.4032 40.2572 50.8345ZM29.6027 55.329C30.1318 55.2636 30.6983 55.2749 31.1851 55.322C31.5974 55.3619 31.8993 55.7284 31.8594 56.1407C31.8195 56.553 31.4529 56.8549 31.0407 56.815C30.6305 56.7753 30.1785 56.7693 29.7867 56.8177C29.365 56.8698 29.1399 56.9702 29.0605 57.0389C29.0595 57.0398 29.0586 57.0406 29.0578 57.0414C29.0594 57.0624 29.0665 57.1053 29.0941 57.1757C29.2015 57.4495 29.5336 57.9235 30.3299 58.6312C30.6395 58.9063 30.6674 59.3804 30.3922 59.69C30.1171 59.9996 29.643 60.0275 29.3334 59.7524C28.4897 59.0025 27.9378 58.3356 27.6977 57.7234C27.5725 57.4042 27.5179 57.0638 27.5883 56.7244C27.6603 56.3776 27.8476 56.105 28.0787 55.9049C28.5055 55.5354 29.1035 55.3908 29.6027 55.329ZM40.6618 58.9248C40.8093 58.5377 41.2426 58.3435 41.6297 58.4909C43.276 59.118 46.2898 61.664 46.7226 66.9387C46.7564 67.3515 46.4492 67.7136 46.0364 67.7475C45.6236 67.7814 45.2615 67.4742 45.2276 67.0613C44.8403 62.3415 42.1826 60.3066 41.0957 59.8927C40.7087 59.7452 40.5144 59.3119 40.6618 58.9248Z" fill="#666666"/>
<path d="M27.1206 71.7197C36.8038 76.3851 38.3661 67.1838 37.9369 62C32.5471 63.5411 27.6643 63.1478 24.8028 62.515C22.9486 67.5925 25.5754 70.7671 27.1206 71.7197Z" fill="#FFDBCD"/>
<path fill-rule="evenodd" clip-rule="evenodd" d="M22.2984 61.7352C22.4446 61.3476 22.8774 61.152 23.2649 61.2983C23.669 61.4508 24.2433 61.6232 24.9647 61.7827C27.7295 62.3941 32.4831 62.7793 37.7307 61.2789C37.9466 61.2172 38.1787 61.2554 38.3634 61.3831C38.5481 61.5107 38.6658 61.7144 38.6844 61.9381C38.9035 64.585 38.6339 68.3878 36.9485 70.9639C36.0856 72.283 34.8346 73.3021 33.0972 73.6348C31.3824 73.9632 29.3003 73.6024 26.795 72.3953C26.7717 72.3841 26.749 72.3717 26.727 72.3581C25.019 71.3051 22.3782 68.0653 23.8378 63.0511C23.4117 62.9361 23.0416 62.8173 22.7352 62.7017C22.3477 62.5554 22.1521 62.1227 22.2984 61.7352ZM25.3041 63.3827C24.018 67.6701 26.2394 70.2746 27.4827 71.0616C29.8007 72.1721 31.5335 72.407 32.815 72.1616C34.0805 71.9192 35.0089 71.1888 35.6933 70.1427C36.9413 68.235 37.317 65.3583 37.2408 62.963C32.4591 64.1606 28.1389 63.9153 25.3041 63.3827Z" fill="#666666"/>
</svg>
