<svg width="345" height="194" viewBox="0 0 345 194" fill="none" xmlns="http://www.w3.org/2000/svg">
<path fill-rule="evenodd" clip-rule="evenodd" d="M21 1C9.9543 1 1 9.95428 1 21V155.848C1 166.894 9.9543 175.848 21 175.848H157.142L171.747 192.579C172.145 193.036 172.855 193.036 173.253 192.579L187.858 175.848H324C335.046 175.848 344 166.894 344 155.848V21C344 9.9543 335.046 1 324 1H21Z" fill="white"/>
<path d="M157.142 175.848L157.519 175.519L157.369 175.348H157.142V175.848ZM171.747 192.579L171.37 192.908L171.747 192.579ZM173.253 192.579L173.63 192.908L173.253 192.579ZM187.858 175.848V175.348H187.631L187.481 175.519L187.858 175.848ZM1.5 21C1.5 10.2304 10.2304 1.5 21 1.5V0.5C9.67816 0.5 0.5 9.67814 0.5 21H1.5ZM1.5 155.848V21H0.5V155.848H1.5ZM21 175.348C10.2304 175.348 1.5 166.618 1.5 155.848H0.5C0.5 167.17 9.67816 176.348 21 176.348V175.348ZM157.142 175.348H21V176.348H157.142V175.348ZM172.123 192.251L157.519 175.519L156.765 176.177L171.37 192.908L172.123 192.251ZM172.877 192.251C172.677 192.479 172.323 192.479 172.123 192.251L171.37 192.908C171.968 193.593 173.032 193.593 173.63 192.908L172.877 192.251ZM187.481 175.519L172.877 192.251L173.63 192.908L188.235 176.177L187.481 175.519ZM324 175.348H187.858V176.348H324V175.348ZM343.5 155.848C343.5 166.618 334.77 175.348 324 175.348V176.348C335.322 176.348 344.5 167.17 344.5 155.848H343.5ZM343.5 21V155.848H344.5V21H343.5ZM324 1.5C334.77 1.5 343.5 10.2304 343.5 21H344.5C344.5 9.67816 335.322 0.5 324 0.5V1.5ZM21 1.5H324V0.5H21V1.5Z" fill="#EFEFEF"/>
<path d="M49.1931 23.912H52.3851V40.064H49.1931V23.912ZM51.4731 30.272H55.3371V32.888H51.4731V30.272ZM38.0571 43.208H53.1771V45.752H38.0571V43.208ZM38.0571 38.384H41.2491V44.336H38.0571V38.384ZM41.0811 25.328C44.4891 25.328 47.1291 27.704 47.1291 30.992C47.1291 34.256 44.4891 36.632 41.0811 36.632C37.6731 36.632 35.0331 34.256 35.0331 30.992C35.0331 27.704 37.6731 25.328 41.0811 25.328ZM41.0811 28.112C39.4491 28.112 38.1531 29.168 38.1531 30.992C38.1531 32.792 39.4491 33.848 41.0811 33.848C42.7371 33.848 44.0091 32.792 44.0091 30.992C44.0091 29.168 42.7371 28.112 41.0811 28.112ZM58.7432 25.04H61.9112V34.376H58.7432V25.04ZM58.7432 33.728H60.5432C64.3832 33.728 67.0472 33.632 70.0232 33.056L70.3832 35.6C67.3112 36.2 64.5272 36.32 60.5432 36.32H58.7432V33.728ZM72.8552 23.912H76.0472V37.232H72.8552V23.912ZM67.5752 25.88H73.6472V28.304H67.5752V25.88ZM67.5752 29.72H73.6472V32.144H67.5752V29.72ZM68.5112 37.52C73.2152 37.52 76.1192 39.128 76.1192 41.84C76.1192 44.576 73.2152 46.16 68.5112 46.16C63.8072 46.16 60.9032 44.576 60.9032 41.84C60.9032 39.128 63.8072 37.52 68.5112 37.52ZM68.5112 39.992C65.6312 39.992 64.0952 40.592 64.0952 41.84C64.0952 43.088 65.6312 43.688 68.5112 43.688C71.4152 43.688 72.9512 43.088 72.9512 41.84C72.9512 40.592 71.4152 39.992 68.5112 39.992ZM94.2613 23.912H97.4293V46.136H94.2613V23.912ZM96.7093 32.576H100.645V35.24H96.7093V32.576ZM79.9093 27.2H92.8453V29.744H79.9093V27.2ZM86.4133 30.992C89.6533 30.992 92.0533 33.2 92.0533 36.296C92.0533 39.392 89.6533 41.6 86.4133 41.6C83.1733 41.6 80.7733 39.392 80.7733 36.296C80.7733 33.2 83.1733 30.992 86.4133 30.992ZM86.4133 33.584C84.9013 33.584 83.8213 34.592 83.8213 36.296C83.8213 38 84.9013 39.008 86.4133 39.008C87.9253 39.008 89.0053 38 89.0053 36.296C89.0053 34.592 87.9253 33.584 86.4133 33.584ZM84.8053 24.272H87.9973V28.16H84.8053V24.272ZM111.323 31.376H114.995V33.968H111.323V31.376ZM106.571 25.832H109.019V29.576C109.019 34.616 107.627 39.536 104.075 41.72L102.155 39.32C105.419 37.304 106.571 33.344 106.571 29.576V25.832ZM107.267 25.832H109.667V29.432C109.667 33.056 110.603 36.752 113.627 38.72L111.899 41.216C108.371 39.032 107.267 34.232 107.267 29.432V25.832ZM118.619 23.912H121.667V46.136H118.619V23.912ZM114.107 24.248H117.083V45.128H114.107V24.248ZM129.562 35.192H132.73V41.432H129.562V35.192ZM137.626 35.192H140.818V41.432H137.626V35.192ZM125.146 40.976H145.258V43.568H125.146V40.976ZM135.178 24.992C139.954 24.992 143.482 27.344 143.482 30.968C143.482 34.592 139.954 36.92 135.178 36.92C130.378 36.92 126.874 34.592 126.874 30.968C126.874 27.344 130.378 24.992 135.178 24.992ZM135.178 27.488C132.082 27.488 130.018 28.76 130.018 30.968C130.018 33.152 132.082 34.448 135.178 34.448C138.274 34.448 140.338 33.152 140.338 30.968C140.338 28.76 138.274 27.488 135.178 27.488ZM148.712 49.136L147.992 47.216C149.864 46.52 150.896 45.248 150.872 43.832L150.752 41.336L152 43.4C151.64 43.76 151.16 43.928 150.632 43.928C149.48 43.928 148.424 43.16 148.424 41.84C148.424 40.568 149.456 39.752 150.728 39.752C152.336 39.752 153.248 41.048 153.248 43.208C153.248 46.04 151.64 48.176 148.712 49.136ZM177.338 23.888H180.53V46.184H177.338V23.888ZM173.45 31.664H178.082V34.232H173.45V31.664ZM167.018 27.416H169.538V29.384C169.538 34.808 167.57 39.992 163.418 42.032L161.546 39.512C165.266 37.76 167.018 33.512 167.018 29.384V27.416ZM167.762 27.416H170.258V29.384C170.258 33.296 171.986 37.4 175.706 39.08L173.858 41.576C169.682 39.608 167.762 34.64 167.762 29.384V27.416ZM162.458 26.048H174.818V28.616H162.458V26.048ZM186.936 29.912H202.344V32.432H186.936V29.912ZM184.44 34.736H204.576V37.28H184.44V34.736ZM186.936 24.704H190.104V31.16H186.936V24.704ZM186.72 43.112H202.464V45.656H186.72V43.112ZM186.72 39.056H189.912V43.784H186.72V39.056ZM215.34 43.208H230.748V45.752H215.34V43.208ZM215.34 39.32H218.532V44.072H215.34V39.32ZM212.916 35.432H233.028V37.976H212.916V35.432ZM221.34 32.336H224.508V36.416H221.34V32.336ZM221.292 24.536H224.028V25.208C224.028 29.408 220.812 32.792 215.172 33.68L213.948 31.184C218.916 30.488 221.292 27.8 221.292 25.208V24.536ZM221.82 24.536H224.556V25.208C224.556 27.92 226.884 30.512 231.9 31.184L230.676 33.68C225.036 32.744 221.82 29.528 221.82 25.208V24.536ZM241.042 27.056H243.682V27.8C243.682 30.992 241.69 33.776 237.226 34.592L236.002 32.072C239.53 31.376 241.042 29.6 241.042 27.8V27.056ZM241.858 27.056H244.498V27.8C244.498 29.6 245.962 31.208 249.442 31.736L248.194 34.28C243.85 33.512 241.858 30.992 241.858 27.8V27.056ZM236.746 25.424H248.842V27.968H236.746V25.424ZM241.186 36.44H244.378V45.464H241.186V36.44ZM250.906 23.912H254.074V46.136H250.906V23.912ZM235.93 38.336L235.546 35.744C239.578 35.744 244.978 35.72 249.634 35.072L249.85 37.4C245.05 38.264 239.89 38.336 235.93 38.336ZM266.864 28.808H270.56V31.376H266.864V28.808ZM266.864 35.672H270.56V38.264H266.864V35.672ZM274.088 23.912H277.136V46.136H274.088V23.912ZM269.648 24.248H272.624V45.128H269.648V24.248ZM263.024 25.472C265.976 25.472 267.872 28.52 267.872 33.536C267.872 38.576 265.976 41.624 263.024 41.624C260.096 41.624 258.224 38.576 258.224 33.536C258.224 28.52 260.096 25.472 263.024 25.472ZM263.024 28.472C261.8 28.472 261.08 30.152 261.08 33.536C261.08 36.944 261.8 38.6 263.024 38.6C264.272 38.6 264.992 36.944 264.992 33.536C264.992 30.152 264.272 28.472 263.024 28.472ZM285.03 35.192H288.198V41.432H285.03V35.192ZM293.094 35.192H296.286V41.432H293.094V35.192ZM280.614 40.976H300.726V43.568H280.614V40.976ZM290.646 24.992C295.422 24.992 298.95 27.344 298.95 30.968C298.95 34.592 295.422 36.92 290.646 36.92C285.846 36.92 282.342 34.592 282.342 30.968C282.342 27.344 285.846 24.992 290.646 24.992ZM290.646 27.488C287.55 27.488 285.486 28.76 285.486 30.968C285.486 33.152 287.55 34.448 290.646 34.448C293.742 34.448 295.806 33.152 295.806 30.968C295.806 28.76 293.742 27.488 290.646 27.488ZM305.476 37.952L304.948 29.096L304.852 25.76H308.38L308.284 29.096L307.78 37.952H305.476ZM306.604 44.336C305.356 44.336 304.42 43.352 304.42 42.032C304.42 40.712 305.356 39.752 306.604 39.752C307.876 39.752 308.812 40.712 308.812 42.032C308.812 43.352 307.876 44.336 306.604 44.336ZM69.1999 59.888H72.4159V82.184H69.1999V59.888ZM71.6959 68.12H75.6319V70.736H71.6959V68.12ZM55.8559 74.192H57.7279C61.4719 74.192 64.4239 74.072 67.6879 73.496L67.9999 76.136C64.6399 76.736 61.5919 76.832 57.7279 76.832H55.8559V74.192ZM55.8559 61.952H66.2239V64.52H59.0239V75.464H55.8559V61.952ZM87.606 60.32C92.502 60.32 95.646 61.976 95.646 64.664C95.646 67.352 92.502 68.984 87.606 68.984C82.71 68.984 79.566 67.352 79.566 64.664C79.566 61.976 82.71 60.32 87.606 60.32ZM87.606 62.792C84.558 62.792 82.854 63.392 82.854 64.664C82.854 65.912 84.558 66.536 87.606 66.536C90.63 66.536 92.358 65.912 92.358 64.664C92.358 63.392 90.63 62.792 87.606 62.792ZM79.878 74.312H95.238V81.896H79.878V74.312ZM92.118 76.832H83.022V79.376H92.118V76.832ZM77.55 70.256H97.638V72.776H77.55V70.256ZM121.29 59.912H124.506V71.288H121.29V59.912ZM109.674 72.176H124.506V78.152H112.842V80.48H109.722V75.92H121.338V74.6H109.674V72.176ZM109.722 79.544H125.058V81.992H109.722V79.544ZM111.426 62.024H114.018V62.888C114.018 66.824 111.93 70.328 107.586 71.552L106.122 69.056C109.818 68.024 111.426 65.432 111.426 62.888V62.024ZM112.122 62.024H114.69V62.888C114.69 65.24 116.274 67.664 119.898 68.648L118.434 71.096C114.162 69.944 112.122 66.608 112.122 62.888V62.024ZM106.962 60.92H119.058V63.44H106.962V60.92ZM128.584 70.88H148.696V73.424H128.584V70.88ZM137.296 72.488H140.512V77.168H137.296V72.488ZM131.056 60.848H146.152V69.104H131.056V60.848ZM143.008 63.344H134.176V66.608H143.008V63.344ZM130.912 79.208H146.488V81.752H130.912V79.208ZM130.912 75.296H134.08V80.048H130.912V75.296ZM160.022 68.096H163.67V70.664H160.022V68.096ZM167.198 59.912H170.246V82.136H167.198V59.912ZM162.662 60.248H165.662V81.128H162.662V60.248ZM156.134 61.472C159.086 61.472 160.982 64.52 160.982 69.536C160.982 74.576 159.086 77.624 156.134 77.624C153.206 77.624 151.334 74.576 151.334 69.536C151.334 64.52 153.206 61.472 156.134 61.472ZM156.134 64.472C154.934 64.472 154.238 66.152 154.238 69.536C154.238 72.944 154.934 74.6 156.134 74.6C157.382 74.6 158.078 72.944 158.078 69.536C158.078 66.152 157.382 64.472 156.134 64.472ZM193.922 59.912H197.114V71.816H193.922V59.912ZM196.226 64.688H200.066V67.28H196.226V64.688ZM180.458 68.744H182.306C187.13 68.744 189.53 68.624 192.194 68.072L192.506 70.592C189.794 71.192 187.25 71.312 182.306 71.312H180.458V68.744ZM180.458 61.232H190.322V63.776H183.626V70.448H180.458V61.232ZM182.594 72.896H185.762V74.912H193.946V72.896H197.114V81.872H182.594V72.896ZM185.762 77.384V79.328H193.946V77.384H185.762ZM202.152 63.248H212.784V65.792H202.152V63.248ZM207.504 66.776C210.336 66.776 212.376 68.96 212.376 72.08C212.376 75.176 210.336 77.36 207.504 77.36C204.696 77.36 202.632 75.176 202.632 72.08C202.632 68.96 204.696 66.776 207.504 66.776ZM207.504 69.44C206.304 69.44 205.464 70.4 205.464 72.08C205.464 73.76 206.304 74.696 207.504 74.696C208.704 74.696 209.568 73.76 209.568 72.08C209.568 70.4 208.704 69.44 207.504 69.44ZM218.232 59.912H221.28V82.136H218.232V59.912ZM215.568 68.936H219.24V71.504H215.568V68.936ZM213.576 60.32H216.552V81.2H213.576V60.32ZM205.944 60.512H209.088V64.856H205.944V60.512ZM232.966 62.384H235.726V63.032C235.726 66.944 232.534 70.136 226.894 70.904L225.718 68.408C230.614 67.808 232.966 65.312 232.966 63.032V62.384ZM233.878 62.384H236.638V63.032C236.638 65.312 238.99 67.808 243.886 68.408L242.734 70.904C237.07 70.136 233.878 66.944 233.878 63.032V62.384ZM233.134 74H236.302V82.16H233.134V74ZM224.758 72.176H244.846V74.72H224.758V72.176ZM226.534 61.04H243.022V63.56H226.534V61.04ZM252.716 61.616H255.308V64.856C255.308 70.568 253.34 75.728 248.924 77.768L247.028 75.128C250.892 73.448 252.716 69.176 252.716 64.856V61.616ZM253.34 61.616H255.932V64.856C255.932 68.96 257.684 73.04 261.476 74.672L259.604 77.24C255.308 75.272 253.34 70.328 253.34 64.856V61.616ZM262.532 59.888H265.748V82.184H262.532V59.888ZM280.578 63.392H286.17V65.936H280.578V63.392ZM280.578 68.168H286.266V70.712H280.578V68.168ZM270.762 61.688H281.274V72.56H270.762V61.688ZM278.13 64.208H273.906V70.064H278.13V64.208ZM285.258 59.936H288.45V76.112H285.258V59.936ZM273.738 79.208H288.93V81.752H273.738V79.208ZM273.738 74.576H276.954V80.528H273.738V74.576ZM68.5269 105.728H84.2709V108.32H68.5269V105.728ZM66.2949 112.904H86.4069V115.52H66.2949V112.904ZM68.5269 97.856H71.7189V106.784H68.5269V97.856ZM104.117 95.912H107.309V118.136H104.117V95.912ZM92.7651 98.168H95.7651C95.7651 104.216 94.9971 108.992 91.1331 113.264L88.6851 111.416C91.9491 107.744 92.7651 104.144 92.7651 98.552V98.168ZM89.7411 98.168H93.9891V100.76H89.7411V98.168ZM98.9571 98.168H101.957C101.957 104.504 101.261 110 97.6131 114.68L95.0211 112.976C98.2131 108.776 98.9571 104.576 98.9571 98.528V98.168ZM96.5571 98.168H100.229V100.76H96.5571V98.168ZM116.811 97.616H119.403V100.856C119.403 106.568 117.435 111.728 113.019 113.768L111.123 111.128C114.987 109.448 116.811 105.176 116.811 100.856V97.616ZM117.435 97.616H120.027V100.856C120.027 104.96 121.779 109.04 125.571 110.672L123.699 113.24C119.403 111.272 117.435 106.328 117.435 100.856V97.616ZM126.627 95.888H129.843V118.184H126.627V95.888ZM136.441 101.912H151.849V104.432H136.441V101.912ZM133.945 106.736H154.081V109.28H133.945V106.736ZM136.441 96.704H139.609V103.16H136.441V96.704ZM136.225 115.112H151.969V117.656H136.225V115.112ZM136.225 111.056H139.417V115.784H136.225V111.056ZM162.421 106.16H182.509V108.68H162.421V106.16ZM172.429 109.904C177.229 109.904 180.133 111.416 180.133 114.032C180.133 116.648 177.229 118.136 172.429 118.136C167.629 118.136 164.701 116.648 164.701 114.032C164.701 111.416 167.629 109.904 172.429 109.904ZM172.429 112.376C169.453 112.376 167.941 112.88 167.941 114.032C167.941 115.16 169.453 115.688 172.429 115.688C175.405 115.688 176.917 115.16 176.917 114.032C176.917 112.88 175.405 112.376 172.429 112.376ZM170.269 98.192H173.101V98.744C173.101 102.056 170.101 104.816 164.365 105.32L163.261 102.848C168.133 102.416 170.269 100.472 170.269 98.744V98.192ZM171.829 98.192H174.661V98.744C174.661 100.472 176.773 102.416 181.669 102.848L180.565 105.32C174.853 104.816 171.829 102.08 171.829 98.744V98.192ZM164.245 96.944H180.709V99.464H164.245V96.944ZM189.851 97.112H192.467V99.08C192.467 103.496 190.547 107.384 186.323 108.848L184.619 106.328C188.339 105.08 189.851 102.104 189.851 99.08V97.112ZM190.499 97.112H193.091V99.392C193.091 102.056 194.579 104.648 198.059 105.728L196.403 108.2C192.395 106.856 190.499 103.4 190.499 99.392V97.112ZM199.283 95.912H202.475V109.04H199.283V95.912ZM201.587 101.048H205.427V103.688H201.587V101.048ZM195.227 109.544C199.835 109.544 202.739 111.152 202.739 113.84C202.739 116.552 199.835 118.136 195.227 118.136C190.595 118.136 187.691 116.552 187.691 113.84C187.691 111.152 190.595 109.544 195.227 109.544ZM195.227 112.016C192.395 112.016 190.859 112.616 190.859 113.84C190.859 115.088 192.395 115.664 195.227 115.664C198.059 115.664 199.571 115.088 199.571 113.84C199.571 112.616 198.059 112.016 195.227 112.016ZM216.417 104.096H220.065V106.664H216.417V104.096ZM223.593 95.912H226.641V118.136H223.593V95.912ZM219.057 96.248H222.057V117.128H219.057V96.248ZM212.529 97.472C215.481 97.472 217.377 100.52 217.377 105.536C217.377 110.576 215.481 113.624 212.529 113.624C209.601 113.624 207.729 110.576 207.729 105.536C207.729 100.52 209.601 97.472 212.529 97.472ZM212.529 100.472C211.329 100.472 210.633 102.152 210.633 105.536C210.633 108.944 211.329 110.6 212.529 110.6C213.777 110.6 214.473 108.944 214.473 105.536C214.473 102.152 213.777 100.472 212.529 100.472ZM252.069 95.912H255.093V118.136H252.069V95.912ZM249.093 104.456H252.789V107.024H249.093V104.456ZM247.101 96.296H250.053V117.08H247.101V96.296ZM236.637 110.504H238.197C240.933 110.504 243.213 110.408 245.853 109.928L246.093 112.52C243.405 113.048 241.053 113.12 238.197 113.12H236.637V110.504ZM236.637 98.48H244.845V101.048H239.805V111.752H236.637V98.48ZM258.547 99.248H269.179V101.792H258.547V99.248ZM263.899 102.776C266.731 102.776 268.771 104.96 268.771 108.08C268.771 111.176 266.731 113.36 263.899 113.36C261.091 113.36 259.027 111.176 259.027 108.08C259.027 104.96 261.091 102.776 263.899 102.776ZM263.899 105.44C262.699 105.44 261.859 106.4 261.859 108.08C261.859 109.76 262.699 110.696 263.899 110.696C265.099 110.696 265.963 109.76 265.963 108.08C265.963 106.4 265.099 105.44 263.899 105.44ZM274.627 95.912H277.675V118.136H274.627V95.912ZM271.963 104.936H275.635V107.504H271.963V104.936ZM269.971 96.32H272.947V117.2H269.971V96.32ZM262.339 96.512H265.483V100.856H262.339V96.512ZM45.449 146.216H47.249C51.185 146.216 53.753 146.12 56.633 145.592L56.945 148.16C53.969 148.712 51.305 148.832 47.249 148.832H45.449V146.216ZM45.449 133.88H55.505V136.424H48.641V147.2H45.449V133.88ZM59.873 131.912H63.065V154.208H59.873V131.912ZM54.425 139.568H61.217V142.16H54.425V139.568ZM77.7646 133.592H80.3566V134.912C80.3566 138.872 78.3406 142.376 73.9966 143.6L72.4606 141.104C76.1806 140.048 77.7646 137.456 77.7646 134.912V133.592ZM78.4126 133.592H81.0046V134.912C81.0046 137.24 82.5406 139.64 86.1406 140.624L84.6526 143.12C80.4286 141.944 78.4126 138.608 78.4126 134.912V133.592ZM73.3246 132.896H85.3486V135.44H73.3246V132.896ZM87.1726 131.912H90.3646V143.264H87.1726V131.912ZM89.0686 136.256H93.2926V138.848H89.0686V136.256ZM75.6766 144.152H90.3646V150.104H78.8926V152.912H75.7246V147.848H87.2206V146.552H75.6766V144.152ZM75.7246 151.52H91.0126V153.92H75.7246V151.52ZM115.648 131.912H118.84V143H115.648V131.912ZM117.544 136.16H121.768V138.776H117.544V136.16ZM104.152 143.888H118.84V149.984H107.368V152.624H104.2V147.68H115.696V146.336H104.152V143.888ZM104.2 151.4H119.488V153.896H104.2V151.4ZM107.416 132.56C110.824 132.56 113.344 134.648 113.344 137.6C113.344 140.528 110.824 142.64 107.416 142.64C104.032 142.64 101.488 140.528 101.488 137.6C101.488 134.648 104.032 132.56 107.416 132.56ZM107.416 135.128C105.784 135.128 104.584 136.04 104.584 137.6C104.584 139.16 105.784 140.096 107.416 140.096C109.072 140.096 110.272 139.16 110.272 137.6C110.272 136.04 109.072 135.128 107.416 135.128ZM139.31 131.888H142.502V154.184H139.31V131.888ZM135.662 136.616H139.838V139.184H135.662V136.616ZM124.67 146.624H126.422C129.71 146.624 132.446 146.552 135.638 146.072L135.902 148.664C132.638 149.168 129.806 149.24 126.422 149.24H124.67V146.624ZM124.622 133.76H134.558V142.376H127.838V147.2H124.67V139.856H131.414V136.304H124.622V133.76ZM135.614 142.664H139.79V145.232H135.614V142.664ZM148.812 142.16H164.436V144.704H148.812V142.16ZM146.484 148.856H166.596V151.472H146.484V148.856ZM148.812 133.736H164.268V136.328H151.98V143.216H148.812V133.736ZM170.123 140.576H172.043C176.915 140.576 179.459 140.528 182.459 140.048L182.747 142.448C179.699 142.952 177.011 143.024 172.043 143.024H170.123V140.576ZM170.075 132.944H180.467V139.016H173.267V141.728H170.123V136.784H177.323V135.344H170.075V132.944ZM172.667 144.296H187.499V150.2H175.931V152.576H172.715V147.944H184.235V146.696H172.667V144.296ZM172.715 151.568H188.051V153.992H172.715V151.568ZM184.283 131.912H187.499V143.48H184.283V131.912ZM205.87 132.56H208.678V133.592C208.678 137.864 205.318 141.488 199.486 142.352L198.238 139.784C203.35 139.112 205.87 136.208 205.87 133.592V132.56ZM206.47 132.56H209.254V133.592C209.254 136.184 211.798 139.112 216.886 139.784L215.662 142.352C209.83 141.488 206.47 137.864 206.47 133.592V132.56ZM205.894 146H209.062V154.136H205.894V146ZM197.518 143.984H217.606V146.576H197.518V143.984ZM230.962 145.4H233.362V146.144C233.362 149.504 231.874 152.576 228.394 153.824L226.834 151.496C229.738 150.512 230.962 148.304 230.962 146.144V145.4ZM231.778 145.4H234.058V146.144C234.058 148.304 235.138 150.56 237.85 151.688L236.578 154.04C233.05 152.72 231.778 149.408 231.778 146.144V145.4ZM239.074 145.4H241.354V146.144C241.354 149.216 240.034 152.672 236.578 154.04L235.258 151.688C237.97 150.464 239.074 148.112 239.074 146.144V145.4ZM239.818 145.4H242.218V146.144C242.218 148.448 243.418 150.584 246.346 151.496L244.786 153.824C241.258 152.624 239.818 149.648 239.818 146.144V145.4ZM241.234 131.936H244.45V144.488H241.234V131.936ZM232.354 133.064C235.81 133.064 238.378 135.272 238.378 138.392C238.378 141.488 235.81 143.696 232.354 143.696C228.898 143.696 226.306 141.488 226.306 138.392C226.306 135.272 228.898 133.064 232.354 133.064ZM232.354 135.704C230.674 135.704 229.426 136.688 229.426 138.392C229.426 140.072 230.674 141.056 232.354 141.056C234.034 141.056 235.258 140.072 235.258 138.392C235.258 136.688 234.034 135.704 232.354 135.704ZM254.624 133.448C257.936 133.448 260.36 136.52 260.36 141.368C260.36 146.264 257.936 149.336 254.624 149.336C251.288 149.336 248.888 146.264 248.888 141.368C248.888 136.52 251.288 133.448 254.624 133.448ZM254.624 136.352C253.016 136.352 251.936 138.104 251.936 141.368C251.936 144.68 253.016 146.456 254.624 146.456C256.256 146.456 257.312 144.68 257.312 141.368C257.312 138.104 256.256 136.352 254.624 136.352ZM264.008 131.888H267.176V154.184H264.008V131.888ZM259.424 139.904H265.352V142.472H259.424V139.904ZM275.526 143.192H278.694V149.432H275.526V143.192ZM283.59 143.192H286.782V149.432H283.59V143.192ZM271.11 148.976H291.222V151.568H271.11V148.976ZM281.142 132.992C285.918 132.992 289.446 135.344 289.446 138.968C289.446 142.592 285.918 144.92 281.142 144.92C276.342 144.92 272.838 142.592 272.838 138.968C272.838 135.344 276.342 132.992 281.142 132.992ZM281.142 135.488C278.046 135.488 275.982 136.76 275.982 138.968C275.982 141.152 278.046 142.448 281.142 142.448C284.238 142.448 286.302 141.152 286.302 138.968C286.302 136.76 284.238 135.488 281.142 135.488ZM295.972 145.952L295.444 137.096L295.348 133.76H298.876L298.78 137.096L298.276 145.952H295.972ZM297.1 152.336C295.852 152.336 294.916 151.352 294.916 150.032C294.916 148.712 295.852 147.752 297.1 147.752C298.372 147.752 299.308 148.712 299.308 150.032C299.308 151.352 298.372 152.336 297.1 152.336Z" fill="#5E5E5E"/>
</svg>
