<svg width="36" height="41" viewBox="0 0 36 41" fill="none" xmlns="http://www.w3.org/2000/svg">
<path d="M33.9999 13L21.9999 2.48001C20.8999 1.4961 19.4758 0.952148 17.9999 0.952148C16.5241 0.952148 15.1 1.4961 13.9999 2.48001L1.99995 13C1.36468 13.5682 0.857746 14.2651 0.512889 15.0445C0.168033 15.8239 -0.00682926 16.6678 -5.45524e-05 17.52V35C-5.45524e-05 36.5913 0.632087 38.1174 1.7573 39.2427C2.88252 40.3679 4.40865 41 5.99995 41H29.9999C31.5912 41 33.1174 40.3679 34.2426 39.2427C35.3678 38.1174 35.9999 36.5913 35.9999 35V17.5C36.0039 16.6511 35.8276 15.8111 35.4829 15.0354C35.1381 14.2597 34.6327 13.5659 33.9999 13ZM21.9999 37H13.9999V27C13.9999 26.4696 14.2107 25.9609 14.5857 25.5858C14.9608 25.2107 15.4695 25 15.9999 25H19.9999C20.5304 25 21.0391 25.2107 21.4142 25.5858C21.7892 25.9609 21.9999 26.4696 21.9999 27V37ZM31.9999 35C31.9999 35.5304 31.7892 36.0392 31.4142 36.4142C31.0391 36.7893 30.5304 37 29.9999 37H25.9999V27C25.9999 25.4087 25.3678 23.8826 24.2426 22.7574C23.1174 21.6322 21.5912 21 19.9999 21H15.9999C14.4086 21 12.8825 21.6322 11.7573 22.7574C10.6321 23.8826 9.99995 25.4087 9.99995 27V37H5.99995C5.46951 37 4.96081 36.7893 4.58573 36.4142C4.21066 36.0392 3.99995 35.5304 3.99995 35V17.5C4.00031 17.216 4.06113 16.9354 4.17838 16.6768C4.29563 16.4181 4.46661 16.1874 4.67995 16L16.6799 5.50001C17.0449 5.17937 17.5141 5.00254 17.9999 5.00254C18.4858 5.00254 18.955 5.17937 19.3199 5.50001L31.3199 16C31.5333 16.1874 31.7043 16.4181 31.8215 16.6768C31.9388 16.9354 31.9996 17.216 31.9999 17.5V35Z" fill="white"/>
</svg>
