<svg width="218" height="89" viewBox="0 0 218 89" fill="none" xmlns="http://www.w3.org/2000/svg">
<path d="M196.368 6.62404C196.368 4.62404 197.016 3.11204 198.312 2.08804C199.608 1.06404 201.296 0.552043 203.376 0.552043C205.456 0.552043 207.136 1.06404 208.416 2.08804C209.712 3.11204 210.36 4.62404 210.36 6.62404V8.92804C210.36 10.928 209.712 12.44 208.416 13.464C207.136 14.488 205.456 15 203.376 15C201.296 15 199.608 14.488 198.312 13.464C197.016 12.44 196.368 10.928 196.368 8.92804V6.62404ZM201.072 9.09604C201.072 9.81604 201.296 10.352 201.744 10.704C202.192 11.056 202.736 11.232 203.376 11.232C204.016 11.232 204.56 11.056 205.008 10.704C205.456 10.352 205.68 9.81604 205.68 9.09604V6.45604C205.68 5.73604 205.456 5.20004 205.008 4.84804C204.56 4.49604 204.016 4.32004 203.376 4.32004C202.736 4.32004 202.192 4.49604 201.744 4.84804C201.296 5.20004 201.072 5.73604 201.072 6.45604V9.09604ZM212.76 2.52004C212.76 1.76804 212.992 1.18404 213.456 0.768044C213.92 0.352043 214.488 0.144043 215.16 0.144043C215.832 0.144043 216.4 0.352043 216.864 0.768044C217.328 1.18404 217.56 1.76804 217.56 2.52004V22.68H212.76V2.52004ZM209.856 17.784C210.544 17.784 211.056 17.984 211.392 18.384C211.744 18.784 211.92 19.264 211.92 19.824C211.92 20.384 211.744 20.856 211.392 21.24C211.056 21.64 210.544 21.84 209.856 21.84H197.832C197.144 21.84 196.624 21.64 196.272 21.24C195.936 20.856 195.768 20.384 195.768 19.824C195.768 19.264 195.936 18.784 196.272 18.384C196.624 17.984 197.144 17.784 197.832 17.784H209.856Z" fill="#004534"/>
<path d="M188.28 2.51985C188.28 1.76785 188.512 1.18385 188.976 0.767852C189.44 0.351852 190.008 0.143852 190.68 0.143852C191.352 0.143852 191.92 0.351852 192.384 0.767852C192.848 1.18385 193.08 1.76785 193.08 2.51985V22.6799H188.28V2.51985ZM172.992 6.76785C172.336 6.76785 171.84 6.56785 171.504 6.16785C171.168 5.76785 171 5.29585 171 4.75185C171 4.20785 171.16 3.73585 171.48 3.33585C171.816 2.91985 172.32 2.71185 172.992 2.71185H176.208V2.42385C176.208 1.65585 176.416 1.07185 176.832 0.671852C177.248 0.255852 177.848 0.0478516 178.632 0.0478516C179.416 0.0478516 180.016 0.255852 180.432 0.671852C180.848 1.07185 181.056 1.65585 181.056 2.42385V2.71185H184.2C184.856 2.71185 185.344 2.91185 185.664 3.31185C185.984 3.71185 186.144 4.19185 186.144 4.75185C186.144 5.29585 185.976 5.76785 185.64 6.16785C185.32 6.56785 184.84 6.76785 184.2 6.76785H180.984V7.99185C180.984 9.15985 180.912 10.2639 180.768 11.3039C182.48 11.8959 183.792 12.8639 184.704 14.2079C185.632 15.5519 186.096 17.4959 186.096 20.0399C186.096 20.2959 186.08 20.7279 186.048 21.3359H181.536C181.6 20.8399 181.632 20.3279 181.632 19.7999C181.632 17.6719 180.976 16.2079 179.664 15.4079C179.056 16.8479 178.264 18.0639 177.288 19.0559C176.328 20.0479 175.24 20.7999 174.024 21.3119C173.688 21.4399 173.352 21.5039 173.016 21.5039C172.6 21.5039 172.216 21.4159 171.864 21.2399C171.512 21.0639 171.248 20.8159 171.072 20.4959C170.912 20.1759 170.832 19.8559 170.832 19.5359C170.832 19.2159 170.912 18.9119 171.072 18.6239C171.232 18.3359 171.464 18.0959 171.768 17.9039C173.304 16.9919 174.44 15.7759 175.176 14.2559C175.928 12.7359 176.304 10.6079 176.304 7.87185V6.76785H172.992Z" fill="#004534"/>
<path d="M167.256 13.704C167.928 13.704 168.432 13.896 168.768 14.28C169.104 14.664 169.272 15.128 169.272 15.672C169.272 16.232 169.104 16.704 168.768 17.088C168.432 17.456 167.928 17.64 167.256 17.64H160.488V22.8H155.592V17.64H148.824C148.152 17.64 147.648 17.456 147.312 17.088C146.976 16.704 146.808 16.232 146.808 15.672C146.808 15.128 146.976 14.664 147.312 14.28C147.648 13.896 148.152 13.704 148.824 13.704H167.256ZM149.736 4.60795C149.064 4.60795 148.56 4.41595 148.224 4.03195C147.888 3.64795 147.72 3.18395 147.72 2.63995C147.72 2.09595 147.888 1.63195 148.224 1.24795C148.56 0.84795 149.064 0.647949 149.736 0.647949H166.344C167.016 0.647949 167.52 0.84795 167.856 1.24795C168.192 1.63195 168.36 2.09595 168.36 2.63995C168.36 3.18395 168.192 3.64795 167.856 4.03195C167.52 4.41595 167.016 4.60795 166.344 4.60795H160.512C160.464 5.02395 160.376 5.45595 160.248 5.90395C160.392 5.88795 160.608 5.87995 160.896 5.87995C162.304 5.87995 163.584 6.15195 164.736 6.69595C165.904 7.23995 166.848 8.03995 167.568 9.09595C168.288 10.136 168.704 11.392 168.816 12.864H164.064C163.776 11.76 163.152 10.88 162.192 10.224C161.248 9.56795 160.16 9.23995 158.928 9.23995C158.784 9.23995 158.536 9.25595 158.184 9.28795C157.096 10.392 155.776 11.272 154.224 11.928C152.688 12.568 151.168 12.888 149.664 12.888C148.928 12.888 148.344 12.704 147.912 12.336C147.48 11.952 147.264 11.4399 147.264 10.7999C147.264 10.3039 147.424 9.88795 147.744 9.55195C148.08 9.19995 148.504 8.99995 149.016 8.95195C150.056 8.83995 151.056 8.58395 152.016 8.18395C152.992 7.78395 153.808 7.27995 154.464 6.67195C155.12 6.04795 155.52 5.35995 155.664 4.60795H149.736Z" fill="#004534"/>
<path d="M132.032 3.11997C132.032 2.33597 132.264 1.74397 132.728 1.34397C133.208 0.927971 133.808 0.719971 134.528 0.719971C135.248 0.719971 135.84 0.927971 136.304 1.34397C136.784 1.74397 137.024 2.33597 137.024 3.11997V22.152H132.032V3.11997Z" fill="#004534"/>
<path d="M117.565 2.71197C117.773 2.07197 118.165 1.58397 118.741 1.24797C119.333 0.895971 119.973 0.719971 120.661 0.719971C121.301 0.719971 121.901 0.895971 122.461 1.24797C123.037 1.59997 123.421 2.08797 123.613 2.71197L129.877 22.152H124.597L123.469 18.024H117.709L116.581 22.152H111.397L117.565 2.71197ZM122.365 13.968L120.589 7.39197L118.813 13.968H122.365Z" fill="#004534"/>
<path d="M80.7187 6.62404C80.7187 4.62404 81.3667 3.11204 82.6627 2.08804C83.9587 1.06404 85.6467 0.552043 87.7267 0.552043C89.8067 0.552043 91.4867 1.06404 92.7667 2.08804C94.0627 3.11204 94.7107 4.62404 94.7107 6.62404V8.92804C94.7107 10.928 94.0627 12.44 92.7667 13.464C91.4867 14.488 89.8067 15 87.7267 15C85.6467 15 83.9587 14.488 82.6627 13.464C81.3667 12.44 80.7187 10.928 80.7187 8.92804V6.62404ZM85.4227 9.09604C85.4227 9.81604 85.6467 10.352 86.0947 10.704C86.5427 11.056 87.0867 11.232 87.7267 11.232C88.3667 11.232 88.9107 11.056 89.3587 10.704C89.8067 10.352 90.0307 9.81604 90.0307 9.09604V6.45604C90.0307 5.73604 89.8067 5.20004 89.3587 4.84804C88.9107 4.49604 88.3667 4.32004 87.7267 4.32004C87.0867 4.32004 86.5427 4.49604 86.0947 4.84804C85.6467 5.20004 85.4227 5.73604 85.4227 6.45604V9.09604ZM97.1107 2.52004C97.1107 1.76804 97.3427 1.18404 97.8067 0.768044C98.2707 0.352043 98.8387 0.144043 99.5107 0.144043C100.183 0.144043 100.751 0.352043 101.215 0.768044C101.679 1.18404 101.911 1.76804 101.911 2.52004V22.68H97.1107V2.52004ZM94.2067 17.784C94.8947 17.784 95.4067 17.984 95.7427 18.384C96.0947 18.784 96.2707 19.264 96.2707 19.824C96.2707 20.384 96.0947 20.856 95.7427 21.24C95.4067 21.64 94.8947 21.84 94.2067 21.84H82.1827C81.4947 21.84 80.9747 21.64 80.6227 21.24C80.2867 20.856 80.1187 20.384 80.1187 19.824C80.1187 19.264 80.2867 18.784 80.6227 18.384C80.9747 17.984 81.4947 17.784 82.1827 17.784H94.2067Z" fill="#004534"/>
<path d="M72.0305 2.52004C72.0305 1.76804 72.2625 1.18404 72.7265 0.768044C73.1905 0.352043 73.7585 0.144043 74.4305 0.144043C75.1025 0.144043 75.6705 0.352043 76.1345 0.768044C76.5985 1.18404 76.8305 1.76804 76.8305 2.52004V6.14404H77.5745C78.2465 6.14404 78.7265 6.35204 79.0145 6.76804C79.3185 7.16804 79.4705 7.65604 79.4705 8.23204C79.4705 8.80804 79.3185 9.30404 79.0145 9.72004C78.7105 10.12 78.2305 10.32 77.5745 10.32H76.8305V17.16H72.0305V2.52004ZM60.9185 22.68C60.0225 22.68 59.3265 22.568 58.8305 22.344C58.3505 22.12 58.0065 21.752 57.7985 21.24C57.6065 20.744 57.5105 20.056 57.5105 19.176V16.656C57.5105 15.904 57.7425 15.336 58.2065 14.952C58.6705 14.552 59.2625 14.352 59.9825 14.352C60.6865 14.352 61.2625 14.552 61.7105 14.952C62.1585 15.352 62.3825 15.92 62.3825 16.656V18.432C62.3825 18.656 62.4225 18.808 62.5025 18.888C62.5825 18.952 62.7345 18.984 62.9585 18.984H75.6065C76.2785 18.984 76.7745 19.16 77.0945 19.512C77.4305 19.848 77.5985 20.28 77.5985 20.808C77.5985 21.352 77.4305 21.8 77.0945 22.152C76.7745 22.504 76.2785 22.68 75.6065 22.68H60.9185ZM56.2625 5.95204C56.2625 4.22404 56.8705 2.88804 58.0865 1.94404C59.3185 1.00004 60.9425 0.528042 62.9585 0.528042C64.9745 0.528042 66.5985 1.00004 67.8305 1.94404C69.0625 2.87204 69.6785 4.20804 69.6785 5.95204V8.04004C69.6785 9.78404 69.0625 11.128 67.8305 12.072C66.6145 13 64.9985 13.464 62.9825 13.464C60.9665 13.464 59.3425 13 58.1105 12.072C56.8785 11.128 56.2625 9.78404 56.2625 8.04004V5.95204ZM60.8945 8.04004C60.8945 8.61604 61.0865 9.07204 61.4705 9.40804C61.8705 9.72804 62.3665 9.88804 62.9585 9.88804C63.5505 9.88804 64.0465 9.72804 64.4465 9.40804C64.8465 9.07204 65.0465 8.61604 65.0465 8.04004V5.92804C65.0465 5.38404 64.8465 4.94404 64.4465 4.60804C64.0625 4.27204 63.5825 4.10404 63.0065 4.10404C62.3985 4.10404 61.8945 4.27204 61.4945 4.60804C61.0945 4.92804 60.8945 5.36804 60.8945 5.92804V8.04004Z" fill="#004534"/>
<path d="M51.6304 11.184C52.2864 11.184 52.7824 11.368 53.1184 11.736C53.4544 12.104 53.6224 12.56 53.6224 13.104C53.6224 13.648 53.4544 14.104 53.1184 14.472C52.7824 14.824 52.2864 15 51.6304 15H33.1504C32.4944 15 31.9984 14.824 31.6624 14.472C31.3264 14.104 31.1584 13.648 31.1584 13.104C31.1584 12.56 31.3264 12.104 31.6624 11.736C31.9984 11.368 32.4944 11.184 33.1504 11.184H40.0624V10.032C40.0624 9.312 40.2864 8.792 40.7344 8.472C41.1984 8.152 41.7904 7.992 42.5104 7.992C43.2144 7.992 43.7984 8.152 44.2624 8.472C44.7264 8.792 44.9584 9.312 44.9584 10.032V11.184H51.6304ZM35.7904 22.68C34.8784 22.68 34.1744 22.568 33.6784 22.344C33.1984 22.136 32.8544 21.792 32.6464 21.312C32.4544 20.832 32.3584 20.16 32.3584 19.296V17.784C32.3584 17.032 32.5904 16.48 33.0544 16.128C33.5184 15.776 34.1184 15.6 34.8544 15.6C35.5744 15.6 36.1584 15.784 36.6064 16.152C37.0544 16.504 37.2784 17.048 37.2784 17.784V18.456C37.2784 18.696 37.3184 18.848 37.3984 18.912C37.4784 18.976 37.6544 19.008 37.9264 19.008H50.8624C51.5504 19.008 52.0544 19.184 52.3744 19.536C52.7104 19.872 52.8784 20.304 52.8784 20.832C52.8784 21.36 52.7104 21.8 52.3744 22.152C52.0384 22.504 51.5344 22.68 50.8624 22.68H35.7904ZM44.7184 2.328C44.7184 2.472 44.7024 2.672 44.6704 2.928C45.9664 2.912 47.1904 3.136 48.3424 3.6C49.4944 4.064 50.4864 4.8 51.3184 5.808C52.1504 6.816 52.7184 8.072 53.0224 9.576H48.2224C47.8384 8.584 47.1984 7.808 46.3024 7.248C45.4224 6.688 44.4304 6.408 43.3264 6.408C43.0544 6.408 42.7584 6.432 42.4384 6.48C41.3024 7.456 39.9504 8.24 38.3824 8.832C36.8304 9.424 35.3344 9.688 33.8944 9.624C33.1904 9.608 32.6464 9.416 32.2624 9.048C31.8944 8.68 31.7104 8.208 31.7104 7.632C31.7104 7.104 31.8944 6.664 32.2624 6.312C32.6464 5.944 33.1504 5.752 33.7744 5.736C34.7184 5.688 35.6224 5.48 36.4864 5.112C37.3504 4.744 38.0784 4.272 38.6704 3.696C39.2784 3.104 39.6784 2.472 39.8704 1.8C40.0464 1.224 40.3424 0.783999 40.7584 0.48C41.1904 0.16 41.7344 0 42.3904 0C43.0784 0.0159998 43.6384 0.224 44.0704 0.623999C44.5024 1.024 44.7184 1.592 44.7184 2.328Z" fill="#004534"/>
<path d="M9.168 17.424C9.808 17.424 10.264 17.624 10.536 18.024C10.824 18.408 10.968 18.872 10.968 19.416C10.968 19.976 10.824 20.456 10.536 20.856C10.248 21.272 9.792 21.48 9.168 21.48H3.456C2.16 21.48 1.256 21.216 0.744 20.688C0.248 20.144 0 19.232 0 17.952V3.43204C0 2.66404 0.216 2.08804 0.648 1.70404C1.096 1.30404 1.664 1.10404 2.352 1.10404C3.04 1.10404 3.584 1.30404 3.984 1.70404C4.4 2.08804 4.608 2.66404 4.608 3.43204V16.752C4.608 17.024 4.656 17.208 4.752 17.304C4.848 17.384 5.032 17.424 5.304 17.424H9.168ZM17.424 2.20804C17.424 1.58404 17.616 1.08804 18 0.720043C18.384 0.336043 18.896 0.144043 19.536 0.144043C20.176 0.144043 20.68 0.336043 21.048 0.720043C21.432 1.08804 21.624 1.58404 21.624 2.20804V22.68H17.424V12.84H16.104V22.68H11.784V2.28004C11.784 1.62404 11.984 1.10404 12.384 0.720043C12.784 0.336043 13.304 0.144043 13.944 0.144043C14.584 0.144043 15.104 0.336043 15.504 0.720043C15.904 1.10404 16.104 1.62404 16.104 2.28004V8.85604H17.424V2.20804Z" fill="#004534"/>
<path d="M200.652 70.208C201.996 70.208 203.004 70.592 203.676 71.36C204.348 72.128 204.684 73.056 204.684 74.144C204.684 75.264 204.348 76.208 203.676 76.976C203.004 77.712 201.996 78.08 200.652 78.08H187.116V88.4H177.324V78.08H163.788C162.444 78.08 161.436 77.712 160.764 76.976C160.092 76.208 159.756 75.264 159.756 74.144C159.756 73.056 160.092 72.128 160.764 71.36C161.436 70.592 162.444 70.208 163.788 70.208H200.652ZM165.612 52.0159C164.268 52.0159 163.26 51.6319 162.588 50.8639C161.916 50.0959 161.58 49.1679 161.58 48.0799C161.58 46.9919 161.916 46.0639 162.588 45.2959C163.26 44.4959 164.268 44.0959 165.612 44.0959H198.828C200.172 44.0959 201.18 44.4959 201.852 45.2959C202.524 46.0639 202.86 46.9919 202.86 48.0799C202.86 49.1679 202.524 50.0959 201.852 50.8639C201.18 51.6319 200.172 52.0159 198.828 52.0159H187.164C187.068 52.8479 186.892 53.7119 186.636 54.6079C186.924 54.5759 187.356 54.56 187.932 54.56C190.748 54.56 193.308 55.1039 195.612 56.1919C197.948 57.2799 199.836 58.8799 201.276 60.992C202.716 63.072 203.548 65.584 203.772 68.528H194.268C193.692 66.32 192.444 64.56 190.524 63.248C188.636 61.936 186.46 61.2799 183.996 61.2799C183.708 61.2799 183.212 61.312 182.508 61.3759C180.332 63.584 177.692 65.344 174.588 66.656C171.516 67.936 168.476 68.576 165.468 68.576C163.996 68.576 162.828 68.208 161.964 67.472C161.1 66.704 160.668 65.6799 160.668 64.3999C160.668 63.4079 160.988 62.576 161.628 61.9039C162.3 61.1999 163.148 60.7999 164.172 60.7039C166.252 60.4799 168.252 59.9679 170.172 59.168C172.124 58.3679 173.756 57.36 175.068 56.144C176.38 54.8959 177.18 53.5199 177.468 52.0159H165.612Z" fill="#00B288"/>
<path d="M151.74 65.168C153.052 65.168 154.044 65.536 154.716 66.272C155.388 67.008 155.724 67.92 155.724 69.008C155.724 70.0961 155.388 71.008 154.716 71.744C154.044 72.448 153.052 72.8 151.74 72.8H114.78C113.468 72.8 112.476 72.448 111.804 71.744C111.132 71.008 110.796 70.0961 110.796 69.008C110.796 67.92 111.132 67.008 111.804 66.272C112.476 65.536 113.468 65.168 114.78 65.168H128.604V62.864C128.604 61.424 129.052 60.384 129.948 59.744C130.876 59.104 132.06 58.784 133.5 58.784C134.908 58.784 136.076 59.104 137.004 59.744C137.932 60.384 138.396 61.424 138.396 62.864V65.168H151.74ZM120.06 88.16C118.236 88.16 116.828 87.9361 115.836 87.4881C114.876 87.0721 114.188 86.384 113.772 85.424C113.388 84.4641 113.196 83.1201 113.196 81.3921V78.368C113.196 76.864 113.66 75.76 114.588 75.056C115.516 74.352 116.716 74 118.188 74C119.628 74 120.796 74.368 121.692 75.104C122.588 75.808 123.036 76.896 123.036 78.368V79.7121C123.036 80.1921 123.116 80.4961 123.276 80.6241C123.436 80.752 123.788 80.8161 124.332 80.8161H150.204C151.58 80.8161 152.588 81.1681 153.228 81.8721C153.9 82.5441 154.236 83.4081 154.236 84.4641C154.236 85.5201 153.9 86.4001 153.228 87.104C152.556 87.808 151.548 88.16 150.204 88.16H120.06ZM137.916 47.456C137.916 47.744 137.884 48.144 137.82 48.656C140.412 48.624 142.86 49.072 145.164 50C147.468 50.928 149.452 52.4 151.116 54.416C152.78 56.432 153.916 58.944 154.524 61.952H144.924C144.156 59.9681 142.876 58.416 141.084 57.296C139.324 56.176 137.34 55.616 135.132 55.616C134.588 55.616 133.996 55.664 133.356 55.76C131.084 57.712 128.38 59.28 125.244 60.464C122.14 61.648 119.148 62.1761 116.268 62.048C114.86 62.0161 113.772 61.632 113.004 60.896C112.268 60.16 111.9 59.216 111.9 58.064C111.9 57.008 112.268 56.128 113.004 55.424C113.772 54.688 114.78 54.304 116.028 54.272C117.916 54.176 119.724 53.76 121.452 53.024C123.18 52.288 124.636 51.344 125.82 50.192C127.036 49.008 127.836 47.744 128.22 46.4C128.572 45.248 129.164 44.368 129.996 43.76C130.86 43.12 131.948 42.8 133.26 42.8C134.636 42.832 135.756 43.248 136.62 44.048C137.484 44.848 137.916 45.984 137.916 47.456Z" fill="#00B288"/>
<path d="M62.0278 78.5121C64.4278 76.8161 66.2838 74.8481 67.5958 72.6081C68.9078 70.3681 69.8358 67.6961 70.3798 64.5921C70.9238 61.4561 71.1958 57.5681 71.1958 52.9281V49.1841C71.1958 47.7121 71.6598 46.5761 72.5878 45.7761C73.5158 44.9441 74.6518 44.5281 75.9958 44.5281C77.2757 44.5281 78.3798 44.9601 79.3078 45.8241C80.2358 46.6561 80.6998 47.7761 80.6998 49.1841V52.8801C80.6998 55.7921 80.5558 58.5281 80.2678 61.0881C84.0758 62.6241 86.9078 65.0561 88.7638 68.3841C90.6198 71.6801 91.5478 76.1121 91.5478 81.6801C91.5478 82.8641 91.4997 84.1121 91.4037 85.4241H82.1878C82.3798 83.7921 82.4758 82.2721 82.4758 80.8641C82.4758 75.7441 81.1798 72.0961 78.5878 69.9201C76.5718 76.6081 73.1158 81.5201 68.2198 84.6561C67.1638 85.3921 65.9798 85.7601 64.6678 85.7601C63.9638 85.7601 63.3078 85.6321 62.6998 85.3761C62.1238 85.1201 61.6598 84.7681 61.3078 84.3201C60.6998 83.6161 60.3958 82.7521 60.3958 81.7281C60.3958 81.1201 60.5238 80.5281 60.7798 79.9521C61.0678 79.3761 61.4838 78.8961 62.0278 78.5121ZM94.3798 47.8401C94.3798 46.3361 94.8438 45.1681 95.7718 44.3361C96.6998 43.5041 97.8358 43.0881 99.1798 43.0881C100.524 43.0881 101.66 43.5041 102.588 44.3361C103.516 45.1681 103.98 46.3361 103.98 47.8401V59.8881H105.708C107.052 59.8881 108.012 60.3041 108.588 61.1361C109.196 61.9361 109.5 62.9121 109.5 64.0641C109.5 65.2161 109.196 66.2081 108.588 67.0401C107.98 67.8401 107.02 68.2401 105.708 68.2401H103.98V88.1601H94.3798V47.8401Z" fill="#00B288"/>
<path d="M14.0757 56.0481C14.0757 52.0481 15.3717 49.0241 17.9637 46.9761C20.5557 44.9281 23.9317 43.9041 28.0917 43.9041C32.2517 43.9041 35.6117 44.9281 38.1717 46.9761C40.7637 49.0241 42.0597 52.0481 42.0597 56.0481V60.6561C42.0597 64.6561 40.7637 67.6801 38.1717 69.7281C35.6117 71.7761 32.2517 72.8001 28.0917 72.8001C23.9317 72.8001 20.5557 71.7761 17.9637 69.7281C15.3717 67.6801 14.0757 64.6561 14.0757 60.6561V56.0481ZM23.4837 60.9921C23.4837 62.4321 23.9317 63.5041 24.8277 64.2081C25.7237 64.9121 26.8117 65.2641 28.0917 65.2641C29.3717 65.2641 30.4597 64.9121 31.3557 64.2081C32.2517 63.5041 32.6997 62.4321 32.6997 60.9921V55.7121C32.6997 54.2721 32.2517 53.2001 31.3557 52.4961C30.4597 51.7921 29.3717 51.4401 28.0917 51.4401C26.8117 51.4401 25.7237 51.7921 24.8277 52.4961C23.9317 53.2001 23.4837 54.2721 23.4837 55.7121V60.9921ZM46.8597 47.8401C46.8597 46.3361 47.3237 45.1681 48.2517 44.3361C49.1797 43.5041 50.3157 43.0881 51.6597 43.0881C53.0037 43.0881 54.1397 43.5041 55.0677 44.3361C55.9957 45.1681 56.4597 46.3361 56.4597 47.8401V88.1601H46.8597V47.8401ZM41.0517 78.3681C42.4277 78.3681 43.4517 78.7681 44.1237 79.5681C44.8277 80.3681 45.1797 81.3281 45.1797 82.4481C45.1797 83.5681 44.8277 84.5121 44.1237 85.2801C43.4517 86.0801 42.4277 86.4801 41.0517 86.4801H17.0037C15.6277 86.4801 14.5877 86.0801 13.8837 85.2801C13.2117 84.5121 12.8757 83.5681 12.8757 82.4481C12.8757 81.3281 13.2117 80.3681 13.8837 79.5681C14.5877 78.7681 15.6277 78.3681 17.0037 78.3681H41.0517Z" fill="#00B288"/>
</svg>
