<svg width="240" height="240" viewBox="0 0 240 240" fill="none" xmlns="http://www.w3.org/2000/svg">
<path d="M182.263 70.5362C182.263 83.4609 171.818 93.9384 158.932 93.9384C146.047 93.9384 135.601 83.4609 135.601 70.5362C135.601 57.6115 146.047 47.134 158.932 47.134C171.818 47.134 182.263 57.6115 182.263 70.5362Z" fill="#66D1B8"/>
<path d="M173.87 75.7287C173.87 84.3713 166.895 91.3776 158.292 91.3776C149.689 91.3776 142.714 84.3713 142.714 75.7287C142.714 67.0861 149.689 60.0798 158.292 60.0798C166.895 60.0798 173.87 67.0861 173.87 75.7287Z" fill="#EBF6F4"/>
<path d="M104.588 70.5362C104.588 83.4609 94.1424 93.9384 81.2571 93.9384C68.3717 93.9384 57.926 83.4609 57.926 70.5362C57.926 57.6115 68.3717 47.134 81.2571 47.134C94.1424 47.134 104.588 57.6115 104.588 70.5362Z" fill="#66D1B8"/>
<path d="M96.9059 75.7287C96.9059 84.3713 89.8997 91.3776 81.257 91.3776C72.6144 91.3776 65.6082 84.3713 65.6082 75.7287C65.6082 67.0861 72.6144 60.0798 81.257 60.0798C89.8997 60.0798 96.9059 67.0861 96.9059 75.7287Z" fill="#EBF6F4"/>
<path d="M165.334 103.292C165.334 128.336 154.341 139.32 119.953 139.32C85.5639 139.32 74.5708 128.336 74.5708 103.292C74.5708 78.2478 94.8889 57.9458 119.953 57.9458C145.016 57.9458 165.334 78.2478 165.334 103.292Z" fill="#66D1B8"/>
<path d="M120.247 55.9838C121.073 57.5861 121 59.2677 120.085 59.7397C119.169 60.2116 117.757 59.2953 116.931 57.693C116.105 56.0907 116.178 54.4091 117.093 53.9371C118.009 53.4651 119.421 54.3814 120.247 55.9838Z" fill="#66D1B8"/>
<path d="M105.084 60.3775C110.768 59.1963 113.99 58.2393 119.798 58.2306C125.665 58.2219 130.323 58.5863 135.905 60.3775C141.489 62.1695 151.392 70.0383 151.392 70.0383C151.392 70.0383 130.843 64.9679 119.798 64.9778C108.873 64.9877 88.5125 70.0383 88.5125 70.0383C88.5125 70.0383 96.4585 62.1699 105.084 60.3775Z" fill="#424242"/>
<path d="M124.078 51.1173C124.078 53.1601 123.123 54.8161 121.944 54.8161C120.765 54.8161 119.81 53.1601 119.81 51.1173C119.81 49.0745 120.765 47.4185 121.944 47.4185C123.123 47.4185 124.078 49.0745 124.078 51.1173Z" fill="#66D1B8"/>
<path d="M151.677 104.608C151.677 111.522 146.136 117.127 139.3 117.127C132.465 117.127 126.923 111.522 126.923 104.608C126.923 97.6939 132.465 92.0889 139.3 92.0889C146.136 92.0889 151.677 97.6939 151.677 104.608Z" fill="white"/>
<path d="M147.267 105.96C147.267 111.42 142.776 115.847 137.237 115.847C131.698 115.847 127.208 111.42 127.208 105.96C127.208 100.499 131.698 96.0723 137.237 96.0723C142.776 96.0723 147.267 100.499 147.267 105.96Z" fill="black"/>
<path d="M112.697 104.608C112.697 111.522 107.092 117.127 100.178 117.127C93.2639 117.127 87.6589 111.522 87.6589 104.608C87.6589 97.6939 93.2639 92.0889 100.178 92.0889C107.092 92.0889 112.697 97.6939 112.697 104.608Z" fill="white"/>
<path d="M135.175 99.131C135.175 100.506 134.092 101.621 132.756 101.621C131.42 101.621 130.338 100.506 130.338 99.131C130.338 97.756 131.42 96.6414 132.756 96.6414C134.092 96.6414 135.175 97.756 135.175 99.131Z" fill="white"/>
<path d="M112.413 105.96C112.413 111.42 107.954 115.847 102.454 115.847C96.9544 115.847 92.4958 111.42 92.4958 105.96C92.4958 100.499 96.9544 96.0723 102.454 96.0723C107.954 96.0723 112.413 100.499 112.413 105.96Z" fill="black"/>
<path d="M100.605 99.131C100.605 100.506 99.49 101.621 98.1151 101.621C96.7401 101.621 95.6255 100.506 95.6255 99.131C95.6255 97.756 96.7401 96.6414 98.1151 96.6414C99.49 96.6414 100.605 97.756 100.605 99.131Z" fill="white"/>
<path d="M124.505 115.064C123.566 117.156 122.403 117.127 119.81 117.127C117.217 117.127 116.054 117.156 115.115 115.064C115.115 113.925 117.217 113.001 119.81 113.001C122.403 113.001 124.505 113.925 124.505 115.064Z" fill="#004534"/>
<path d="M156.159 104.686C156.159 113.27 149.2 120.229 140.616 120.229C132.031 120.229 125.073 113.27 125.073 104.686C125.073 96.1015 132.031 89.1426 140.616 89.1426C149.2 89.1426 156.159 96.1015 156.159 104.686ZM126.938 104.686C126.938 112.24 133.062 118.364 140.616 118.364C148.17 118.364 154.294 112.24 154.294 104.686C154.294 97.1316 148.17 91.0078 140.616 91.0078C133.062 91.0078 126.938 97.1316 126.938 104.686Z" fill="black"/>
<path d="M114.192 104.686C114.192 113.27 107.233 120.229 98.6491 120.229C90.0649 120.229 83.106 113.27 83.106 104.686C83.106 96.1015 90.0649 89.1426 98.6491 89.1426C107.233 89.1426 114.192 96.1015 114.192 104.686ZM84.9711 104.686C84.9711 112.24 91.095 118.364 98.6491 118.364C106.203 118.364 112.327 112.24 112.327 104.686C112.327 97.1316 106.203 91.0078 98.6491 91.0078C91.095 91.0078 84.9711 97.1316 84.9711 104.686Z" fill="black"/>
<path d="M113.881 103.753C113.881 103.753 117.548 101.888 119.943 101.888C122.338 101.888 126.005 103.753 126.005 103.753V105.618C126.005 105.618 122.338 103.753 119.943 103.753C117.548 103.753 113.881 105.618 113.881 105.618V103.753Z" fill="black"/>
<path d="M155.226 103.753H161.443V105.618H155.226V103.753Z" fill="black"/>
<path d="M78.1321 103.753H84.3493V105.618H78.1321V103.753Z" fill="black"/>
<path d="M135.174 60.5777C135.174 69.1811 128.264 76.1555 119.739 76.1555C111.214 76.1555 104.303 69.1811 104.303 60.5777C104.303 51.9744 111.214 45 119.739 45C128.264 45 135.174 51.9744 135.174 60.5777Z" fill="#DBDBDB"/>
<path d="M128.549 48.1299L105.015 63.0286L108.153 70.3228L132.472 52.3202L128.549 48.1299Z" fill="#FAFAFA"/>
<path d="M123.509 60.5067C123.509 62.5495 121.853 64.2055 119.81 64.2055C117.767 64.2055 116.111 62.5495 116.111 60.5067C116.111 58.4639 117.767 56.8079 119.81 56.8079C121.853 56.8079 123.509 58.4639 123.509 60.5067Z" fill="#858585"/>
<path fill-rule="evenodd" clip-rule="evenodd" d="M119.739 73.2755C126.648 73.2755 132.294 67.6155 132.294 60.5777C132.294 53.54 126.648 47.88 119.739 47.88C112.83 47.88 107.183 53.54 107.183 60.5777C107.183 67.6155 112.83 73.2755 119.739 73.2755ZM119.739 76.1555C128.264 76.1555 135.174 69.1811 135.174 60.5777C135.174 51.9744 128.264 45 119.739 45C111.214 45 104.303 51.9744 104.303 60.5777C104.303 69.1811 111.214 76.1555 119.739 76.1555Z" fill="#666666"/>
<path d="M211.967 186.728C213.311 186.728 214.319 187.112 214.991 187.88C215.663 188.648 215.999 189.576 215.999 190.664C215.999 191.784 215.663 192.728 214.991 193.496C214.319 194.232 213.311 194.6 211.967 194.6H198.431V204.92H188.639V194.6H175.103C173.759 194.6 172.751 194.232 172.079 193.496C171.407 192.728 171.071 191.784 171.071 190.664C171.071 189.576 171.407 188.648 172.079 187.88C172.751 187.112 173.759 186.728 175.103 186.728H211.967ZM176.927 168.536C175.583 168.536 174.575 168.152 173.903 167.384C173.231 166.616 172.895 165.688 172.895 164.6C172.895 163.512 173.231 162.584 173.903 161.816C174.575 161.016 175.583 160.616 176.927 160.616H210.143C211.487 160.616 212.495 161.016 213.167 161.816C213.839 162.584 214.175 163.512 214.175 164.6C214.175 165.688 213.839 166.616 213.167 167.384C212.495 168.152 211.487 168.536 210.143 168.536H198.479C198.383 169.368 198.207 170.232 197.951 171.128C198.239 171.096 198.671 171.08 199.247 171.08C202.063 171.08 204.623 171.624 206.927 172.712C209.263 173.8 211.151 175.4 212.591 177.512C214.031 179.592 214.863 182.104 215.087 185.048H205.583C205.007 182.84 203.759 181.08 201.839 179.768C199.951 178.456 197.775 177.8 195.311 177.8C195.023 177.8 194.527 177.832 193.823 177.896C191.647 180.104 189.007 181.864 185.903 183.176C182.831 184.456 179.791 185.096 176.783 185.096C175.311 185.096 174.143 184.728 173.279 183.992C172.415 183.224 171.983 182.2 171.983 180.92C171.983 179.928 172.303 179.096 172.943 178.424C173.615 177.72 174.463 177.32 175.487 177.224C177.567 177 179.567 176.488 181.487 175.688C183.439 174.888 185.071 173.88 186.383 172.664C187.695 171.416 188.495 170.04 188.783 168.536H176.927Z" fill="#00B288"/>
<path d="M163.055 181.688C164.367 181.688 165.359 182.056 166.031 182.792C166.703 183.528 167.039 184.44 167.039 185.528C167.039 186.616 166.703 187.528 166.031 188.264C165.359 188.968 164.367 189.32 163.055 189.32H126.095C124.783 189.32 123.791 188.968 123.119 188.264C122.447 187.528 122.111 186.616 122.111 185.528C122.111 184.44 122.447 183.528 123.119 182.792C123.791 182.056 124.783 181.688 126.095 181.688H139.919V179.384C139.919 177.944 140.367 176.904 141.263 176.264C142.191 175.624 143.375 175.304 144.815 175.304C146.223 175.304 147.391 175.624 148.319 176.264C149.247 176.904 149.711 177.944 149.711 179.384V181.688H163.055ZM131.375 204.68C129.551 204.68 128.143 204.456 127.151 204.008C126.191 203.592 125.503 202.904 125.087 201.944C124.703 200.984 124.511 199.64 124.511 197.912V194.888C124.511 193.384 124.975 192.28 125.903 191.576C126.831 190.872 128.031 190.52 129.503 190.52C130.943 190.52 132.111 190.888 133.007 191.624C133.903 192.328 134.351 193.416 134.351 194.888V196.232C134.351 196.712 134.431 197.016 134.591 197.144C134.751 197.272 135.103 197.336 135.647 197.336H161.519C162.895 197.336 163.903 197.688 164.543 198.392C165.215 199.064 165.551 199.928 165.551 200.984C165.551 202.04 165.215 202.92 164.543 203.624C163.871 204.328 162.863 204.68 161.519 204.68H131.375ZM149.231 163.976C149.231 164.264 149.199 164.664 149.135 165.176C151.727 165.144 154.175 165.592 156.479 166.52C158.783 167.448 160.767 168.92 162.431 170.936C164.095 172.952 165.231 175.464 165.839 178.472H156.239C155.471 176.488 154.191 174.936 152.399 173.816C150.639 172.696 148.655 172.136 146.447 172.136C145.903 172.136 145.311 172.184 144.671 172.28C142.399 174.232 139.695 175.8 136.559 176.984C133.455 178.168 130.463 178.696 127.583 178.568C126.175 178.536 125.087 178.152 124.319 177.416C123.583 176.68 123.215 175.736 123.215 174.584C123.215 173.528 123.583 172.648 124.319 171.944C125.087 171.208 126.095 170.824 127.343 170.792C129.231 170.696 131.039 170.28 132.767 169.544C134.495 168.808 135.951 167.864 137.135 166.712C138.351 165.528 139.151 164.264 139.535 162.92C139.887 161.768 140.479 160.888 141.311 160.28C142.175 159.64 143.263 159.32 144.575 159.32C145.951 159.352 147.071 159.768 147.935 160.568C148.799 161.368 149.231 162.504 149.231 163.976Z" fill="#00B288"/>
<path d="M73.3427 195.032C75.7427 193.336 77.5987 191.368 78.9107 189.128C80.2227 186.888 81.1507 184.216 81.6947 181.112C82.2387 177.976 82.5107 174.088 82.5107 169.448V165.704C82.5107 164.232 82.9747 163.096 83.9027 162.296C84.8307 161.464 85.9667 161.048 87.3107 161.048C88.5907 161.048 89.6947 161.48 90.6227 162.344C91.5507 163.176 92.0147 164.296 92.0147 165.704V169.4C92.0147 172.312 91.8707 175.048 91.5827 177.608C95.3907 179.144 98.2227 181.576 100.079 184.904C101.935 188.2 102.863 192.632 102.863 198.2C102.863 199.384 102.815 200.632 102.719 201.944H93.5027C93.6947 200.312 93.7907 198.792 93.7907 197.384C93.7907 192.264 92.4947 188.616 89.9027 186.44C87.8867 193.128 84.4307 198.04 79.5347 201.176C78.4787 201.912 77.2947 202.28 75.9827 202.28C75.2787 202.28 74.6227 202.152 74.0147 201.896C73.4387 201.64 72.9747 201.288 72.6227 200.84C72.0147 200.136 71.7107 199.272 71.7107 198.248C71.7107 197.64 71.8387 197.048 72.0947 196.472C72.3827 195.896 72.7987 195.416 73.3427 195.032ZM105.695 164.36C105.695 162.856 106.159 161.688 107.087 160.856C108.015 160.024 109.151 159.608 110.495 159.608C111.839 159.608 112.975 160.024 113.903 160.856C114.831 161.688 115.295 162.856 115.295 164.36V176.408H117.023C118.367 176.408 119.327 176.824 119.903 177.656C120.511 178.456 120.815 179.432 120.815 180.584C120.815 181.736 120.511 182.728 119.903 183.56C119.295 184.36 118.335 184.76 117.023 184.76H115.295V204.68H105.695V164.36Z" fill="#00B288"/>
<path d="M25.3907 172.568C25.3907 168.568 26.6867 165.544 29.2787 163.496C31.8707 161.448 35.2467 160.424 39.4067 160.424C43.5667 160.424 46.9267 161.448 49.4867 163.496C52.0787 165.544 53.3747 168.568 53.3747 172.568V177.176C53.3747 181.176 52.0787 184.2 49.4867 186.248C46.9267 188.296 43.5667 189.32 39.4067 189.32C35.2467 189.32 31.8707 188.296 29.2787 186.248C26.6867 184.2 25.3907 181.176 25.3907 177.176V172.568ZM34.7987 177.512C34.7987 178.952 35.2467 180.024 36.1427 180.728C37.0387 181.432 38.1267 181.784 39.4067 181.784C40.6867 181.784 41.7747 181.432 42.6707 180.728C43.5667 180.024 44.0147 178.952 44.0147 177.512V172.232C44.0147 170.792 43.5667 169.72 42.6707 169.016C41.7747 168.312 40.6867 167.96 39.4067 167.96C38.1267 167.96 37.0387 168.312 36.1427 169.016C35.2467 169.72 34.7987 170.792 34.7987 172.232V177.512ZM58.1747 164.36C58.1747 162.856 58.6387 161.688 59.5667 160.856C60.4947 160.024 61.6307 159.608 62.9747 159.608C64.3187 159.608 65.4547 160.024 66.3827 160.856C67.3107 161.688 67.7747 162.856 67.7747 164.36V204.68H58.1747V164.36ZM52.3667 194.888C53.7427 194.888 54.7667 195.288 55.4387 196.088C56.1427 196.888 56.4947 197.848 56.4947 198.968C56.4947 200.088 56.1427 201.032 55.4387 201.8C54.7667 202.6 53.7427 203 52.3667 203H28.3187C26.9427 203 25.9027 202.6 25.1987 201.8C24.5267 201.032 24.1907 200.088 24.1907 198.968C24.1907 197.848 24.5267 196.888 25.1987 196.088C25.9027 195.288 26.9427 194.888 28.3187 194.888H52.3667Z" fill="#00B288"/>
</svg>
