<svg
  width="24"
  height="24"
  viewBox="0 0 24 24"
  fill="none"
  xmlns="http://www.w3.org/2000/svg"
>
  <path
    d="M16.3378 8.71L18.6205 11H9.10264C8.83942 11 8.58698 11.1054 8.40085 11.2929C8.21473 11.4804 8.11016 11.7348 8.11016 12C8.11016 12.2652 8.21473 12.5196 8.40085 12.7071C8.58698 12.8946 8.83942 13 9.10264 13H18.6205L16.3378 15.29C16.2448 15.383 16.171 15.4936 16.1206 15.6154C16.0702 15.7373 16.0443 15.868 16.0443 16C16.0443 16.132 16.0702 16.2627 16.1206 16.3846C16.171 16.5064 16.2448 16.617 16.3378 16.71C16.4301 16.8037 16.5399 16.8781 16.6608 16.9289C16.7817 16.9797 16.9115 17.0058 17.0425 17.0058C17.1735 17.0058 17.3032 16.9797 17.4242 16.9289C17.5451 16.8781 17.6549 16.8037 17.7472 16.71L21.7171 12.71C21.8074 12.6149 21.8783 12.5028 21.9255 12.38C22.0248 12.1365 22.0248 11.8635 21.9255 11.62C21.8783 11.4972 21.8074 11.3851 21.7171 11.29L17.7472 7.29C17.6546 7.19676 17.5448 7.1228 17.4239 7.07234C17.3029 7.02188 17.1734 6.99591 17.0425 6.99591C16.9116 6.99591 16.782 7.02188 16.6611 7.07234C16.5402 7.1228 16.4304 7.19676 16.3378 7.29C16.2453 7.38324 16.1719 7.49393 16.1218 7.61575C16.0717 7.73757 16.0459 7.86814 16.0459 8C16.0459 8.13186 16.0717 8.26243 16.1218 8.38425C16.1719 8.50607 16.2453 8.61676 16.3378 8.71ZM12.0801 21C12.0801 20.7348 11.9755 20.4804 11.7894 20.2929C11.6033 20.1054 11.3508 20 11.0876 20H5.13272C4.8695 20 4.61705 19.8946 4.43093 19.7071C4.2448 19.5196 4.14024 19.2652 4.14024 19V5C4.14024 4.73478 4.2448 4.48043 4.43093 4.29289C4.61705 4.10536 4.8695 4 5.13272 4H11.0876C11.3508 4 11.6033 3.89464 11.7894 3.70711C11.9755 3.51957 12.0801 3.26522 12.0801 3C12.0801 2.73478 11.9755 2.48043 11.7894 2.29289C11.6033 2.10536 11.3508 2 11.0876 2H5.13272C4.34305 2 3.58573 2.31607 3.02735 2.87868C2.46897 3.44129 2.15527 4.20435 2.15527 5V19C2.15527 19.7956 2.46897 20.5587 3.02735 21.1213C3.58573 21.6839 4.34305 22 5.13272 22H11.0876C11.3508 22 11.6033 21.8946 11.7894 21.7071C11.9755 21.5196 12.0801 21.2652 12.0801 21Z"
    fill="currentColor"
  />
</svg>
