<svg
  width="24"
  height="24"
  viewBox="0 0 24 24"
  fill="none"
  xmlns="http://www.w3.org/2000/svg"
>
  <path
    d="M16.3379 8.71L18.6206 11L9.10269 11C8.83947 11 8.58703 11.1054 8.4009 11.2929C8.21478 11.4804 8.11021 11.7348 8.11021 12C8.11021 12.2652 8.21478 12.5196 8.4009 12.7071C8.58703 12.8946 8.83947 13 9.10269 13L18.6206 13L16.3379 15.29C16.2449 15.383 16.171 15.4936 16.1206 15.6154C16.0702 15.7373 16.0443 15.868 16.0443 16C16.0443 16.132 16.0702 16.2627 16.1206 16.3846C16.171 16.5064 16.2449 16.617 16.3379 16.71C16.4301 16.8037 16.5399 16.8781 16.6609 16.9289C16.7818 16.9797 16.9115 17.0058 17.0425 17.0058C17.1736 17.0058 17.3033 16.9797 17.4242 16.9289C17.5452 16.8781 17.6549 16.8037 17.7472 16.71L21.7171 12.71C21.8075 12.6149 21.8783 12.5028 21.9256 12.38C22.0248 12.1365 22.0248 11.8635 21.9256 11.62C21.8783 11.4972 21.8075 11.3851 21.7171 11.29L17.7472 7.29C17.6547 7.19676 17.5448 7.1228 17.4239 7.07234C17.303 7.02188 17.1734 6.99591 17.0425 6.99591C16.9117 6.99591 16.7821 7.02188 16.6612 7.07234C16.5403 7.1228 16.4304 7.19676 16.3379 7.29C16.2453 7.38324 16.1719 7.49393 16.1219 7.61575C16.0718 7.73757 16.046 7.86814 16.046 8C16.046 8.13186 16.0718 8.26243 16.1219 8.38425C16.1719 8.50607 16.2453 8.61676 16.3379 8.71ZM12.0801 21C12.0801 20.7348 11.9756 20.4804 11.7894 20.2929C11.6033 20.1054 11.3509 20 11.0877 20H5.13277C4.86955 20 4.6171 19.8946 4.43098 19.7071C4.24485 19.5196 4.14029 19.2652 4.14029 19L4.14029 5C4.14029 4.73478 4.24485 4.48043 4.43098 4.29289C4.6171 4.10536 4.86955 4 5.13277 4L11.0877 4C11.3509 4 11.6033 3.89464 11.7894 3.70711C11.9756 3.51957 12.0801 3.26522 12.0801 3C12.0801 2.73478 11.9756 2.48043 11.7894 2.29289C11.6033 2.10536 11.3509 2 11.0877 2L5.13277 2C4.3431 2 3.58578 2.31607 3.0274 2.87868C2.46902 3.44129 2.15532 4.20435 2.15532 5L2.15532 19C2.15532 19.7956 2.46902 20.5587 3.0274 21.1213C3.58578 21.6839 4.3431 22 5.13277 22H11.0877C11.3509 22 11.6033 21.8946 11.7894 21.7071C11.9756 21.5196 12.0801 21.2652 12.0801 21Z"
    fill="currentColor"
  />
</svg>
