<svg
  width="88"
  height="88"
  viewBox="0 0 88 88"
  fill="none"
  xmlns="http://www.w3.org/2000/svg"
>
  <path
    d="M16.6293 24.2351C8.60555 28.3776 10.8858 42.8764 13.0289 49.608L43.1181 61L71.9214 50.3848C83.6484 31.122 72.35 19.7473 65.2349 16.4678C69.9669 13.5681 65.3206 10.2541 62.406 8.95951C27.8421 -0.5683 17.4866 15.1733 16.6293 24.2351Z"
    fill="#C6CACD"
  />
  <path
    fill-rule="evenodd"
    clip-rule="evenodd"
    d="M27.2404 10.2826C20.4602 14.0292 17.7834 19.9986 17.376 24.3057L17.3374 24.7136L16.9734 24.9015C13.3425 26.776 11.929 31.0573 11.7661 35.9755C11.6102 40.6842 12.6172 45.7149 13.6359 49.0359L43.1216 60.1994L71.4157 49.7718C77.0466 40.4084 77.0754 33.0697 74.9469 27.7094C72.7849 22.2648 68.3446 18.727 64.921 17.149L63.6466 16.5616L64.843 15.8284C65.9388 15.1569 66.3534 14.5445 66.4714 14.0718C66.5859 13.613 66.4642 13.1075 66.0708 12.538C65.2662 11.3731 63.5642 10.302 62.1521 9.66749C45.0106 4.95211 34.0175 6.53782 27.2404 10.2826ZM26.5149 8.96975C33.7637 4.96427 45.2142 3.44247 62.6053 8.23648L62.6593 8.25135L62.7105 8.27408C64.2033 8.93712 66.2505 10.1587 67.305 11.6855C67.846 12.4687 68.1809 13.4164 67.9268 14.4349C67.7539 15.1276 67.3299 15.7655 66.667 16.3499C70.1552 18.2545 74.2365 21.8561 76.341 27.1558C78.6918 33.0759 78.5238 40.982 72.562 50.7748L72.4261 50.9981L43.1146 61.8006L12.4243 50.1811L12.3143 49.8356C11.2252 46.4146 10.0983 41.0192 10.267 35.9258C10.4295 31.0163 11.8123 26.1166 15.926 23.764C16.4987 19.0539 19.4638 12.866 26.5149 8.96975Z"
    fill="#666666"
  />
  <path
    d="M34.7342 23C43.9182 27.5283 62.133 34.3807 61.5207 25.5632L65.0923 27.2293C67.0989 29.5945 70.7587 37.2733 70.8076 50.1701L74.2761 45.5563C81.6233 51.503 76.4263 59.8249 72.9094 63.2425C72.8781 70.8331 66.3358 81.2954 49.5306 81.954C32.7253 82.6126 22.54 76.1099 20.7032 68.1126C15.8561 67.5145 6.82522 63.6526 9.47836 52.9896C10.7539 49.572 14.7847 44.4285 20.7032 51.1954L25.2951 31.2116C29.8408 31.5836 35.3896 30.2434 34.7342 23Z"
    fill="#F7E7D0"
  />
  <path
    fill-rule="evenodd"
    clip-rule="evenodd"
    d="M33.8668 21.7361L35.0659 22.3273C39.6345 24.58 46.4192 27.394 51.9546 28.5522C54.744 29.1358 57.0943 29.2712 58.6706 28.8007C59.4397 28.5712 59.9743 28.2125 60.3096 27.7377C60.6435 27.265 60.8403 26.5914 60.7725 25.6152L60.6844 24.3455L68.9809 28.2157L68.3467 29.5751L67.1636 29.0232C69.0514 32.5145 71.1843 38.8596 71.5143 47.982L74.1438 44.4843L74.748 44.9733C76.69 46.5452 77.8378 48.3051 78.3763 50.1363C78.913 51.9616 78.8294 53.8059 78.394 55.5313C77.5636 58.8215 75.4344 61.764 73.6546 63.56C73.4453 71.5565 66.5012 82.0395 49.5599 82.7034C32.9742 83.3534 22.3596 77.0792 20.0987 68.7843C17.6086 68.3867 14.2703 67.2205 11.7653 64.8727C9.03384 62.3126 7.35873 58.4023 8.75055 52.8086L8.76082 52.7673L8.7757 52.7274C9.4399 50.9478 10.8629 48.5803 13.0392 47.5906C14.1599 47.081 15.4552 46.9507 16.8721 47.4299C17.9674 47.8003 19.1057 48.5242 20.2853 49.6649L24.3746 31.8685C23.5315 31.7598 22.7387 31.5996 22.0414 31.4146L22.4262 29.9647C23.2737 30.1897 24.2858 30.3765 25.3563 30.4641C27.5626 30.6446 29.8905 30.3943 31.562 29.3291C33.1576 28.3122 34.2944 26.4624 33.9873 23.0676L33.8668 21.7361ZM25.8834 32.0004L21.1053 52.7944L20.1386 51.6892C18.7123 50.0583 17.4553 49.2106 16.3915 48.8508C15.3482 48.498 14.4464 48.5985 13.6601 48.956C12.0357 49.6948 10.8122 51.5832 10.1959 53.2124C8.95316 58.2584 10.465 61.5981 12.7911 63.7783C15.1737 66.0114 18.4766 67.0822 20.795 67.3683L21.3165 67.4326L21.4341 67.9447C23.1456 75.3962 32.8106 81.8587 49.5012 81.2046C65.9476 80.5601 72.13 70.3873 72.1594 63.2394C72.1728 59.9839 71.2276 56.9036 70.0392 54.6171L69.9449 54.4357L69.9557 54.2315C70.0304 52.8245 70.0625 51.4716 70.0576 50.1729C70.01 37.6177 66.5061 30.1732 64.6221 27.8376L62.2393 26.726C62.1464 27.4386 61.9133 28.0672 61.5348 28.6031C60.9553 29.4236 60.0956 29.9408 59.0996 30.2381C57.1459 30.8212 54.4833 30.6137 51.6475 30.0204C46.3837 28.9191 40.1019 26.3919 35.5366 24.2216C35.5125 27.3358 34.2687 29.3829 32.3682 30.594C30.4821 31.796 28.0645 32.0988 25.8834 32.0004ZM73.5764 61.418C74.9569 59.7691 76.3392 57.543 76.9396 55.1643C77.3246 53.6387 77.3825 52.0739 76.9372 50.5595C76.5468 49.2319 75.758 47.9028 74.394 46.6477L71.5581 50.4199C71.5583 51.6068 71.5282 52.8364 71.4641 54.1086C72.4804 56.1175 73.3174 58.6626 73.5764 61.418Z"
    fill="#666666"
  />
  <path
    fill-rule="evenodd"
    clip-rule="evenodd"
    d="M58.0106 47.7569C57.339 48.4049 56.9073 49.2217 56.7245 49.7535C56.5899 50.1452 56.1633 50.3537 55.7715 50.2191C55.3798 50.0845 55.1713 49.6578 55.306 49.2661C55.5525 48.5484 56.0996 47.5162 56.9692 46.6774C57.8512 45.8265 59.1027 45.1439 60.7074 45.2636C62.277 45.3807 63.3161 46.1054 63.9439 46.9981C64.55 47.86 64.7501 48.8422 64.7501 49.5098C64.7501 49.924 64.4143 50.2598 64.0001 50.2598C63.5859 50.2598 63.2501 49.924 63.2501 49.5098C63.2501 49.0946 63.1154 48.4276 62.7169 47.861C62.3401 47.3252 61.7051 46.8422 60.5958 46.7594C59.5218 46.6793 58.6697 47.1211 58.0106 47.7569ZM32.2587 46.8124C33.0383 45.9747 34.1693 45.2615 35.6668 45.2615C37.1583 45.2615 38.3253 45.9691 39.1516 46.7919C39.9712 47.608 40.5024 48.5798 40.7494 49.2507C40.8925 49.6394 40.6934 50.0705 40.3047 50.2136C39.916 50.3567 39.4848 50.1576 39.3417 49.7689C39.1594 49.2736 38.7375 48.4964 38.0933 47.8548C37.4557 47.2201 36.648 46.7615 35.6668 46.7615C34.6915 46.7615 33.9336 47.2144 33.3567 47.8343C32.7694 48.4654 32.4091 49.2323 32.265 49.7217C32.148 50.119 31.731 50.3462 31.3337 50.2292C30.9363 50.1122 30.7091 49.6952 30.8261 49.2979C31.0254 48.6211 31.4894 47.639 32.2587 46.8124ZM50.5847 52.9632C50.0239 52.9278 49.3604 53.1588 48.9149 53.4109C48.5544 53.6149 48.0968 53.488 47.8928 53.1275C47.6888 52.767 47.8157 52.3094 48.1762 52.1054C48.761 51.7744 49.7202 51.4057 50.6791 51.4661C51.1738 51.4973 51.6956 51.6453 52.1508 52.0004C52.6093 52.358 52.9414 52.8797 53.1312 53.5547C53.3182 54.2198 53.3143 54.8319 53.0836 55.3602C52.852 55.8909 52.4368 56.2332 52.0024 56.4439C51.1733 56.8461 50.1366 56.8414 49.4729 56.7494C49.0626 56.6926 48.7761 56.3139 48.833 55.9036C48.8898 55.4933 49.2685 55.2068 49.6788 55.2636C50.2171 55.3382 50.9061 55.3085 51.3478 55.0943C51.5487 54.9969 51.6552 54.8832 51.709 54.76C51.7638 54.6345 51.8093 54.395 51.6872 53.9606C51.5678 53.5362 51.3913 53.3103 51.2283 53.1832C51.0622 53.0536 50.8499 52.9799 50.5847 52.9632ZM36.2691 58.5582C36.5159 58.8908 36.4463 59.3606 36.1136 59.6074C34.4958 60.8075 33.2521 62.6267 32.3546 64.463C31.4597 66.2941 30.9394 68.0795 30.7368 69.1406C30.6591 69.5475 30.2663 69.8144 29.8595 69.7367C29.4526 69.659 29.1857 69.2662 29.2634 68.8594C29.4901 67.6716 30.0516 65.7589 31.007 63.8044C31.9597 61.8551 33.3346 59.8012 35.2199 58.4027C35.5526 58.1559 36.0223 58.2255 36.2691 58.5582ZM58.4922 61.0937C58.8567 60.8969 59.3117 61.0328 59.5085 61.3973C59.9922 62.2931 60.6681 63.6925 61.1211 64.9851C61.3462 65.6272 61.5294 66.2794 61.5954 66.8464C61.6284 67.1298 61.6362 67.4242 61.5887 67.7009C61.5416 67.9762 61.4294 68.2909 61.1738 68.5388C60.8765 68.8272 60.4017 68.82 60.1133 68.5227C59.8345 68.2354 59.8319 67.7822 60.1005 67.4918C60.1032 67.4825 60.1068 67.4682 60.1103 67.4476C60.1249 67.3622 60.1291 67.2228 60.1055 67.0198C60.0582 66.6138 59.9162 66.0822 59.7056 65.4812C59.2872 64.2875 58.6494 62.9633 58.1886 62.11C57.9918 61.7455 58.1278 61.2905 58.4922 61.0937ZM60.0957 67.5055C60.0957 67.5055 60.0958 67.5051 60.0962 67.5043L60.0957 67.5055ZM37.7909 63.6536C38.1216 63.4042 38.5919 63.4701 38.8413 63.8008C40.0496 65.4028 42.335 67.3162 45.2224 67.8699C48.0526 68.4126 51.6072 67.6767 55.4797 63.7273C55.7697 63.4315 56.2446 63.4269 56.5403 63.7169C56.8361 64.0069 56.8408 64.4817 56.5508 64.7775C52.387 69.0239 48.343 69.9956 44.9399 69.343C41.594 68.7014 39.0112 66.5169 37.6437 64.704C37.3943 64.3733 37.4602 63.903 37.7909 63.6536Z"
    fill="#666666"
  />
</svg>
