<svg width="24" height="24" viewBox="0 0 24 24" fill="none" xmlns="http://www.w3.org/2000/svg">
<path fill-rule="evenodd" clip-rule="evenodd" d="M15.0934 10.8372C15.0934 12.6354 13.6357 14.093 11.8376 14.093C10.0394 14.093 8.58175 12.6354 8.58175 10.8372C8.58175 9.03908 10.0394 7.5814 11.8376 7.5814C13.6357 7.5814 15.0934 9.03908 15.0934 10.8372ZM13.4267 10.8372C13.4267 11.7149 12.7152 12.4264 11.8376 12.4264C10.9599 12.4264 10.2484 11.7149 10.2484 10.8372C10.2484 9.95956 10.9599 9.24807 11.8376 9.24807C12.7152 9.24807 13.4267 9.95956 13.4267 10.8372Z" fill="#00B288"/>
<path fill-rule="evenodd" clip-rule="evenodd" d="M20.6744 10.8372C20.6744 16.8837 11.8372 22 11.8372 22C11.8372 22 3 16.8837 3 10.8372C3 5.95655 6.95655 2 11.8372 2C16.7179 2 20.6744 5.95655 20.6744 10.8372ZM19.0078 10.8372C19.0078 13.1039 17.2914 15.4664 15.1267 17.4601C14.094 18.4113 13.0539 19.1921 12.2687 19.7362C12.1136 19.8437 11.9691 19.9415 11.8372 20.0292C11.7053 19.9415 11.5608 19.8437 11.4057 19.7362C10.6205 19.1921 9.58046 18.4113 8.54773 17.4601C6.38306 15.4664 4.66667 13.1039 4.66667 10.8372C4.66667 6.87703 7.87703 3.66667 11.8372 3.66667C15.7974 3.66667 19.0078 6.87703 19.0078 10.8372Z" fill="#00B288"/>
</svg>
