<svg
  width="24"
  height="25"
  viewBox="0 0 24 25"
  fill="none"
  xmlns="http://www.w3.org/2000/svg"
>
  <g id="new_icon">
    <path
      id="Vector"
      d="M21.7099 20.7899L17.9999 17.1099C19.44 15.3143 20.1374 13.0352 19.9487 10.7412C19.76 8.44721 18.6996 6.31269 16.9854 4.77655C15.2713 3.24041 13.0337 2.41941 10.7328 2.48237C8.43194 2.54534 6.24263 3.48747 4.61505 5.11505C2.98747 6.74263 2.04534 8.93194 1.98237 11.2328C1.91941 13.5337 2.74041 15.7713 4.27655 17.4854C5.81269 19.1996 7.94721 20.26 10.2412 20.4487C12.5352 20.6374 14.8143 19.94 16.6099 18.4999L20.2899 22.1799C20.3829 22.2736 20.4935 22.348 20.6153 22.3988C20.7372 22.4496 20.8679 22.4757 20.9999 22.4757C21.1319 22.4757 21.2626 22.4496 21.3845 22.3988C21.5063 22.348 21.6169 22.2736 21.7099 22.1799C21.8901 21.9934 21.9909 21.7442 21.9909 21.4849C21.9909 21.2256 21.8901 20.9764 21.7099 20.7899V20.7899ZM10.9999 18.4999C9.61544 18.4999 8.26206 18.0894 7.11091 17.3202C5.95977 16.551 5.06256 15.4578 4.53275 14.1787C4.00293 12.8996 3.86431 11.4921 4.13441 10.1343C4.4045 8.77641 5.07119 7.52912 6.05016 6.55016C7.02912 5.57119 8.27641 4.9045 9.63427 4.63441C10.9921 4.36431 12.3996 4.50293 13.6787 5.03275C14.9578 5.56256 16.051 6.45977 16.8202 7.61091C17.5894 8.76206 17.9999 10.1154 17.9999 11.4999C17.9999 13.3564 17.2624 15.1369 15.9497 16.4497C14.6369 17.7624 12.8564 18.4999 10.9999 18.4999V18.4999Z"
      fill="currentColor"
    />
  </g>
</svg>
