<svg
  width="24"
  height="24"
  viewBox="0 0 24 24"
  fill="none"
  xmlns="http://www.w3.org/2000/svg"
>
  <path
    d="M22.4648 9.4437C22.3986 9.24285 22.2781 9.06643 22.118 8.93584C21.958 8.80525 21.7652 8.7261 21.563 8.70798L15.5966 7.79657L12.9228 2.11944C12.8369 1.93379 12.7028 1.77722 12.5359 1.66766C12.369 1.55811 12.176 1.5 11.979 1.5C11.7821 1.5 11.5891 1.55811 11.4222 1.66766C11.2553 1.77722 11.1212 1.93379 11.0353 2.11944L8.36147 7.78559L2.39509 8.70798C2.20103 8.73687 2.01858 8.82214 1.86845 8.95413C1.71832 9.08611 1.60652 9.25952 1.54575 9.45468C1.49012 9.64539 1.48512 9.84837 1.53131 10.0418C1.57749 10.2353 1.67311 10.4119 1.80789 10.5528L6.1385 14.9451L5.08993 21.1823C5.05249 21.3882 5.07209 21.6009 5.14641 21.7955C5.22074 21.9901 5.34667 22.1583 5.50935 22.2804C5.66792 22.3991 5.85494 22.4692 6.04942 22.4827C6.2439 22.4963 6.43815 22.4529 6.61036 22.3572L11.979 19.4253L17.3268 22.3682C17.4739 22.4552 17.6401 22.5006 17.8091 22.5C18.0312 22.5008 18.2479 22.4278 18.4278 22.2914C18.5905 22.1693 18.7164 22.0011 18.7907 21.8065C18.865 21.6119 18.8846 21.3991 18.8472 21.1933L17.7986 14.9561L22.1292 10.5638C22.2806 10.4294 22.3925 10.2529 22.4519 10.0546C22.5113 9.85636 22.5158 9.64452 22.4648 9.4437Z"
    fill="currentColor"
  />
  <path
    fill-rule="evenodd"
    clip-rule="evenodd"
    d="M6.61036 22.3572L11.979 19.4253L17.3268 22.3682C17.4739 22.4552 17.6401 22.5006 17.8091 22.5C18.0312 22.5008 18.2479 22.4278 18.4278 22.2914C18.5905 22.1693 18.7164 22.0011 18.7907 21.8065C18.865 21.6119 18.8846 21.3991 18.8472 21.1933L17.7986 14.9561L22.1292 10.5638C22.2806 10.4294 22.3925 10.2529 22.4519 10.0546C22.5113 9.85636 22.5158 9.64452 22.4648 9.4437C22.3986 9.24285 22.2781 9.06643 22.118 8.93584C21.958 8.80525 21.7652 8.7261 21.563 8.70798L15.5966 7.79657L12.9228 2.11944C12.8369 1.93379 12.7028 1.77722 12.5359 1.66766C12.369 1.55811 12.176 1.5 11.979 1.5C11.7821 1.5 11.5891 1.55811 11.4222 1.66766C11.2553 1.77722 11.1212 1.93379 11.0353 2.11944L8.36147 7.78559L2.39509 8.70798C2.20103 8.73687 2.01858 8.82214 1.86845 8.95413C1.71832 9.08611 1.60652 9.25952 1.54575 9.45468C1.49012 9.64539 1.48512 9.84837 1.53131 10.0418C1.57749 10.2353 1.67311 10.4119 1.80789 10.5528L6.1385 14.9451L5.08993 21.1823C5.05249 21.3882 5.07209 21.6009 5.14641 21.7955C5.22074 21.9901 5.34667 22.1583 5.50935 22.2804C5.66792 22.3991 5.85494 22.4692 6.04942 22.4827C6.2439 22.4963 6.43815 22.4529 6.61036 22.3572ZM5.95909 21.6802C6.00409 21.7138 6.05355 21.7312 6.10165 21.7346C6.14976 21.7379 6.19958 21.7275 6.24628 21.7015L6.25088 21.699L11.9804 18.57L17.6984 21.7167L17.7083 21.7225C17.7406 21.7416 17.7743 21.7501 17.8065 21.75L17.8119 21.75C17.8665 21.7502 17.9235 21.7325 17.9746 21.6937L17.9777 21.6914C18.0243 21.6564 18.065 21.6046 18.0901 21.5389C18.1153 21.4729 18.1223 21.3991 18.1093 21.3274L18.1075 21.3176L16.9955 14.7025L21.6127 10.0194L21.6315 10.0027C21.6761 9.96311 21.7131 9.9073 21.7335 9.83939C21.7514 9.77968 21.7548 9.71567 21.7435 9.65403C21.7202 9.59682 21.6848 9.5503 21.6439 9.51697C21.5978 9.47932 21.5462 9.45948 21.4961 9.45499L21.4728 9.45291L15.0884 8.47763L12.242 2.43427C12.2134 2.37248 12.1712 2.32537 12.1244 2.29466C12.078 2.2642 12.0277 2.25 11.979 2.25C11.9304 2.25 11.8801 2.2642 11.8337 2.29466C11.7869 2.32537 11.7446 2.37248 11.7161 2.43427L11.7136 2.43953L8.86974 8.46592L2.50551 9.44982C2.45704 9.45704 2.40753 9.47882 2.36365 9.5174C2.32087 9.55501 2.285 9.60744 2.2639 9.67124C2.24654 9.73488 2.24537 9.80299 2.26081 9.86767C2.2764 9.93298 2.30746 9.98897 2.34704 10.0314L6.94166 14.6915L5.82789 21.3165C5.81485 21.3882 5.82185 21.462 5.84704 21.5279C5.8721 21.5935 5.9126 21.6452 5.95909 21.6802Z"
    fill="currentColor"
  />
</svg>
