<svg
  width="24"
  height="24"
  viewBox="0 0 24 24"
  fill="none"
  xmlns="http://www.w3.org/2000/svg"
>
  <path
    d="M21.5179 9.08045L21.5064 9.07868L15.54 8.16727L15.3425 8.1371L15.2574 7.95635L12.5835 2.27923L12.5824 2.27686L12.5824 2.27686C12.5252 2.15313 12.437 2.05129 12.3302 1.98116C12.2235 1.91115 12.1019 1.875 11.979 1.875C11.8562 1.875 11.7346 1.91115 11.6279 1.98116C11.5211 2.05129 11.4329 2.15313 11.3757 2.27686L11.3745 2.27949L11.3745 2.27948L8.70061 7.94563L8.61561 8.12575L8.41877 8.15618L2.45239 9.07858L2.4503 9.0789L2.4503 9.0789C2.32903 9.09695 2.21305 9.15048 2.11605 9.23577C2.01968 9.32049 1.94579 9.43337 1.9048 9.56295C1.86832 9.69011 1.86524 9.82567 1.89606 9.95475C1.92692 10.084 1.99016 10.2002 2.07711 10.2917L6.40553 14.6819L6.54008 14.8183L6.50831 15.0073L5.45974 21.2445L5.45891 21.2494L5.45888 21.2494C5.43364 21.3882 5.44697 21.5314 5.49673 21.6617C5.5464 21.7918 5.62958 21.9017 5.7341 21.9802L21.5179 9.08045ZM21.5179 9.08045L21.5295 9.08149M21.5179 9.08045L21.5295 9.08149M21.5295 9.08149C21.6557 9.09279 21.7779 9.14228 21.881 9.2264C21.9811 9.30809 22.0593 9.41934 22.1044 9.54872C22.1354 9.68003 22.1313 9.81802 22.0927 9.94701C22.0528 10.0801 21.9784 10.1963 21.8804 10.2832L21.871 10.2916L21.8622 10.3005L17.5316 14.6928L17.397 14.8293L17.4288 15.0183L18.4774 21.2554L18.4774 21.2554L18.4783 21.2604C18.5035 21.3991 18.4902 21.5424 18.4404 21.6727C18.3907 21.8029 18.3074 21.9129 18.2027 21.9914L18.2012 21.9925C18.0857 22.0801 17.9489 22.1255 17.8105 22.125L17.8078 22.125C17.7072 22.1253 17.6072 22.0984 17.5175 22.0454L17.5176 22.0452L17.5076 22.0397L12.1598 19.0968L11.9797 18.9977L11.7993 19.0962L6.43062 22.0281L6.42832 22.0294M21.5295 9.08149L6.42832 22.0294M6.42832 22.0294C6.31887 22.0902 6.19683 22.1171 6.07554 22.1086C5.95432 22.1002 5.83614 22.0565 5.73439 21.9804L6.42832 22.0294Z"
    fill="currentColor"
    stroke="currentColor"
    stroke-width="0.75"
  />
</svg>
