<svg width="24" height="24" viewBox="0 0 24 24" fill="none" xmlns="http://www.w3.org/2000/svg">
<path d="M21.8749 11.3658C21.7956 11.1614 21.6766 10.9746 21.5248 10.8162L13.188 2.48975C13.0325 2.33448 12.848 2.21131 12.6448 2.12728C12.4417 2.04325 12.224 2 12.0042 2C11.5601 2 11.1343 2.17617 10.8203 2.48975C10.6649 2.64502 10.5416 2.82935 10.4574 3.03222C10.3733 3.23509 10.33 3.45252 10.33 3.67211C10.33 4.11558 10.5064 4.54089 10.8203 4.85447L16.3226 10.3333H3.66736C3.22515 10.3333 2.80105 10.5087 2.48836 10.821C2.17567 11.1333 2 11.5569 2 11.9986C2 12.4402 2.17567 12.8638 2.48836 13.1761C2.80105 13.4884 3.22515 13.6639 3.66736 13.6639H16.3226L10.8203 19.1427C10.6641 19.2975 10.54 19.4817 10.4554 19.6846C10.3707 19.8875 10.3271 20.1052 10.3271 20.3251C10.3271 20.5449 10.3707 20.7626 10.4554 20.9655C10.54 21.1684 10.6641 21.3526 10.8203 21.5074C10.9753 21.6635 11.1597 21.7874 11.3629 21.8719C11.5661 21.9565 11.784 22 12.0042 22C12.2243 22 12.4422 21.9565 12.6454 21.8719C12.8486 21.7874 13.033 21.6635 13.188 21.5074L21.5248 13.1809C21.6766 13.0226 21.7956 12.8358 21.8749 12.6314C22.0417 12.226 22.0417 11.7712 21.8749 11.3658Z" fill="white"/>
</svg>
