<svg
  width="126"
  height="95"
  viewBox="0 0 126 95"
  fill="none"
  xmlns="http://www.w3.org/2000/svg"
>
  <path
    d="M125.264 25.536C125.264 38.4607 114.818 48.9382 101.933 48.9382C89.0472 48.9382 78.6016 38.4607 78.6016 25.536C78.6016 12.6114 89.0472 2.13385 101.933 2.13385C114.818 2.13385 125.264 12.6114 125.264 25.536Z"
    fill="#66D1B8"
  />
  <path
    d="M116.87 30.7286C116.87 39.3713 109.896 46.3775 101.293 46.3775C92.6892 46.3775 85.7148 39.3713 85.7148 30.7286C85.7148 22.086 92.6892 15.0798 101.293 15.0798C109.896 15.0798 116.87 22.086 116.87 30.7286Z"
    fill="#EBF6F4"
  />
  <path
    d="M47.5883 25.536C47.5883 38.4607 37.1427 48.9382 24.2573 48.9382C11.3719 48.9382 0.92627 38.4607 0.92627 25.536C0.92627 12.6114 11.3719 2.13385 24.2573 2.13385C37.1427 2.13385 47.5883 12.6114 47.5883 25.536Z"
    fill="#66D1B8"
  />
  <path
    d="M39.9061 30.7286C39.9061 39.3713 32.8999 46.3775 24.2573 46.3775C15.6146 46.3775 8.6084 39.3713 8.6084 30.7286C8.6084 22.086 15.6146 15.0798 24.2573 15.0798C32.8999 15.0798 39.9061 22.086 39.9061 30.7286Z"
    fill="#EBF6F4"
  />
  <path
    d="M108.334 58.2917C108.334 83.3355 97.3412 94.3199 62.9525 94.3199C28.5639 94.3199 17.5708 83.3355 17.5708 58.2917C17.5708 33.2478 37.8889 12.9458 62.9525 12.9458C88.0161 12.9458 108.334 33.2478 108.334 58.2917Z"
    fill="#66D1B8"
  />
  <path
    d="M63.2473 10.9836C64.0733 12.5859 64.0007 14.2675 63.0851 14.7395C62.1695 15.2115 60.7576 14.2952 59.9316 12.6928C59.1056 11.0905 59.1783 9.40894 60.0939 8.93695C61.0095 8.46495 62.4214 9.38127 63.2473 10.9836Z"
    fill="#66D1B8"
  />
  <path
    d="M48.0845 15.3773C53.7686 14.1962 56.9899 13.2391 62.7978 13.2305C68.6656 13.2218 73.323 13.5862 78.905 15.3773C84.4897 17.1694 94.3927 25.0381 94.3927 25.0381C94.3927 25.0381 73.8431 19.9678 62.7978 19.9777C51.8731 19.9876 31.5127 25.0381 31.5127 25.0381C31.5127 25.0381 39.4588 17.1698 48.0845 15.3773Z"
    fill="#424242"
  />
  <path
    d="M67.0784 6.11722C67.0784 8.16002 66.123 9.81604 64.9445 9.81604C63.7659 9.81604 62.8105 8.16002 62.8105 6.11722C62.8105 4.07442 63.7659 2.4184 64.9445 2.4184C66.123 2.4184 67.0784 4.07442 67.0784 6.11722Z"
    fill="#66D1B8"
  />
  <path
    d="M94.677 59.6079C94.677 66.522 89.1357 72.127 82.3002 72.127C75.4646 72.127 69.9233 66.522 69.9233 59.6079C69.9233 52.6938 75.4646 47.0888 82.3002 47.0888C89.1357 47.0888 94.677 52.6938 94.677 59.6079Z"
    fill="white"
  />
  <path
    d="M90.267 60.9594C90.267 66.42 85.7767 70.8466 80.2375 70.8466C74.6984 70.8466 70.208 66.42 70.208 60.9594C70.208 55.4988 74.6984 51.0721 80.2375 51.0721C85.7767 51.0721 90.267 55.4988 90.267 60.9594Z"
    fill="black"
  />
  <path
    d="M55.6974 59.6079C55.6974 66.522 50.0924 72.127 43.1783 72.127C36.2642 72.127 30.6592 66.522 30.6592 59.6079C30.6592 52.6938 36.2642 47.0888 43.1783 47.0888C50.0924 47.0888 55.6974 52.6938 55.6974 59.6079Z"
    fill="white"
  />
  <path
    d="M78.1748 54.1308C78.1748 55.5058 77.092 56.6204 75.7564 56.6204C74.4207 56.6204 73.3379 55.5058 73.3379 54.1308C73.3379 52.7559 74.4207 51.6412 75.7564 51.6412C77.092 51.6412 78.1748 52.7559 78.1748 54.1308Z"
    fill="white"
  />
  <path
    d="M55.4128 60.9594C55.4128 66.42 50.9543 70.8466 45.4545 70.8466C39.9546 70.8466 35.4961 66.42 35.4961 60.9594C35.4961 55.4988 39.9546 51.0721 45.4545 51.0721C50.9543 51.0721 55.4128 55.4988 55.4128 60.9594Z"
    fill="black"
  />
  <path
    d="M43.6052 54.1308C43.6052 55.5058 42.4905 56.6204 41.1156 56.6204C39.7406 56.6204 38.626 55.5058 38.626 54.1308C38.626 52.7559 39.7406 51.6412 41.1156 51.6412C42.4905 51.6412 43.6052 52.7559 43.6052 54.1308Z"
    fill="white"
  />
  <path
    d="M67.505 70.0641C66.5661 72.1554 65.4032 72.1269 62.8104 72.1269C60.2176 72.1269 59.0547 72.1554 58.1157 70.0641C58.1157 68.9249 60.2176 68.0013 62.8104 68.0013C65.4032 68.0013 67.505 68.9249 67.505 70.0641Z"
    fill="#004534"
  />
  <path
    d="M99.159 59.6857C99.159 68.27 92.2001 75.2289 83.6159 75.2289C75.0317 75.2289 68.0728 68.27 68.0728 59.6857C68.0728 51.1015 75.0317 44.1426 83.6159 44.1426C92.2001 44.1426 99.159 51.1015 99.159 59.6857ZM69.9379 59.6857C69.9379 67.2399 76.0618 73.3637 83.6159 73.3637C91.17 73.3637 97.2939 67.2399 97.2939 59.6857C97.2939 52.1316 91.17 46.0078 83.6159 46.0078C76.0618 46.0078 69.9379 52.1316 69.9379 59.6857Z"
    fill="black"
  />
  <path
    d="M57.1927 59.6857C57.1927 68.27 50.2338 75.2289 41.6496 75.2289C33.0653 75.2289 26.1064 68.27 26.1064 59.6857C26.1064 51.1015 33.0653 44.1426 41.6496 44.1426C50.2338 44.1426 57.1927 51.1015 57.1927 59.6857ZM27.9716 59.6857C27.9716 67.2399 34.0955 73.3637 41.6496 73.3637C49.2037 73.3637 55.3276 67.2399 55.3276 59.6857C55.3276 52.1316 49.2037 46.0078 41.6496 46.0078C34.0955 46.0078 27.9716 52.1316 27.9716 59.6857Z"
    fill="black"
  />
  <path
    d="M56.8818 58.7531C56.8818 58.7531 60.5485 56.8879 62.9437 56.8879C65.3388 56.8879 69.0055 58.7531 69.0055 58.7531V60.6183C69.0055 60.6183 65.3388 58.7531 62.9437 58.7531C60.5485 58.7531 56.8818 60.6183 56.8818 60.6183V58.7531Z"
    fill="black"
  />
  <path d="M98.2261 58.7531H104.443V60.6183H98.2261V58.7531Z" fill="black" />
  <path d="M21.1323 58.7531H27.3496V60.6183H21.1323V58.7531Z" fill="black" />
  <path
    d="M78.1747 15.5777C78.1747 24.181 71.264 31.1554 62.7392 31.1554C54.2144 31.1554 47.3037 24.181 47.3037 15.5777C47.3037 6.97433 54.2144 -6.10352e-05 62.7392 -6.10352e-05C71.264 -6.10352e-05 78.1747 6.97433 78.1747 15.5777Z"
    fill="#DBDBDB"
  />
  <path
    d="M71.5494 3.1297L48.0151 18.0285L51.153 25.3226L75.4718 7.31997L71.5494 3.1297Z"
    fill="#FAFAFA"
  />
  <path
    d="M66.5095 15.5065C66.5095 17.5493 64.8534 19.2053 62.8106 19.2053C60.7678 19.2053 59.1118 17.5493 59.1118 15.5065C59.1118 13.4637 60.7678 11.8077 62.8106 11.8077C64.8534 11.8077 66.5095 13.4637 66.5095 15.5065Z"
    fill="#858585"
  />
  <path
    fill-rule="evenodd"
    clip-rule="evenodd"
    d="M62.7392 28.2754C69.6485 28.2754 75.2947 22.6154 75.2947 15.5777C75.2947 8.53994 69.6485 2.87994 62.7392 2.87994C55.8298 2.87994 50.1837 8.53994 50.1837 15.5777C50.1837 22.6154 55.8298 28.2754 62.7392 28.2754ZM62.7392 31.1554C71.264 31.1554 78.1747 24.181 78.1747 15.5777C78.1747 6.97433 71.264 -6.10352e-05 62.7392 -6.10352e-05C54.2144 -6.10352e-05 47.3037 6.97433 47.3037 15.5777C47.3037 24.181 54.2144 31.1554 62.7392 31.1554Z"
    fill="#666666"
  />
</svg>
